<?xml version="1.0" encoding="utf-8"?>
<!-- Generator: Adobe Illustrator 23.0.6, SVG Export Plug-In . SVG Version: 6.00 Build 0)  -->
<svg version="1.1" id="Layer_2" xmlns="http://www.w3.org/2000/svg" xmlns:xlink="http://www.w3.org/1999/xlink" x="0px" y="0px"
	 viewBox="0 0 519.3 430.2" style="enable-background:new 0 0 519.3 430.2;" xml:space="preserve">
<style type="text/css">
	.st0{fill:url(#SVGID_1_);}
	.st1{fill:none;stroke:#000000;stroke-miterlimit:10;}
	.st2{fill:none;stroke:#000000;stroke-linecap:round;stroke-miterlimit:10;}
	.st3{fill:none;stroke:#808080;stroke-miterlimit:10;}
	.st4{fill:none;stroke:#808080;stroke-miterlimit:10;stroke-dasharray:3.9632,3.9632;}
	.st5{fill:#808080;}
	.st6{fill:none;stroke:#808080;stroke-miterlimit:10;stroke-dasharray:4.0521,4.0521;}
	.st7{fill:none;stroke:#808080;stroke-miterlimit:10;stroke-dasharray:3.9448,3.9448;}
	.st8{fill:url(#SVGID_2_);}
	.st9{fill:none;stroke:#93278F;stroke-width:2;stroke-miterlimit:10;}
	.st10{fill:#29ABE2;}
	.st11{fill:none;stroke:#0A3542;stroke-width:0.75;stroke-linecap:round;stroke-linejoin:round;stroke-miterlimit:10;}
	.st12{fill:#004518;stroke:#0A3542;stroke-width:0.75;stroke-linecap:round;stroke-linejoin:round;stroke-miterlimit:10;}
	.st13{fill:none;stroke:#FFFFFF;stroke-width:2.4;stroke-linejoin:round;stroke-miterlimit:10;}
</style>
<radialGradient id="SVGID_1_" cx="49.6869" cy="258.8744" r="263.4272" gradientUnits="userSpaceOnUse">
	<stop  offset="0" style="stop-color:#FFF33B"/>
	<stop  offset="6.747615e-02" style="stop-color:#FEE72E"/>
	<stop  offset="0.197" style="stop-color:#FED51B"/>
	<stop  offset="0.3304" style="stop-color:#FDCA10"/>
	<stop  offset="0.4726" style="stop-color:#FDC70C"/>
	<stop  offset="0.9979" style="stop-color:#F3903F"/>
</radialGradient>
<path class="st0" d="M48.3,0l28.3,0c134.5,75.8,190.1,195.8,151.6,368.9H48.3V0z"/>
<path class="st1" d="M88.5,184.4c32.2,59.8,34.2,121.4,11.9,184.5"/>
<path class="st1" d="M48.3,127.9c11.5,12.9,21.4,25.9,29.8,39"/>
<path class="st1" d="M48.3,53.4c109.4,81.8,147.9,186.9,115.5,315.5"/>
<path class="st1" d="M173.9,111.9c48.1,70.2,64.4,154.8,42,257"/>
<path class="st1" d="M53.3,0c43.6,27.9,79.8,59.1,107.6,94.2"/>
<g>
	<path d="M68.5,177.8c0.1,0.6,0.3,1,0.8,1.2c0.2,0.1,0.5,0.2,0.9,0.2c0.6,0,1.1-0.2,1.4-0.6s0.5-0.8,0.5-1.3c0-0.6-0.2-1-0.5-1.4
		s-0.8-0.5-1.3-0.5c-0.4,0-0.7,0.1-0.9,0.2s-0.5,0.3-0.7,0.6l-0.9-0.1l0.6-4.5h4.4v1h-3.6l-0.4,2.3c0.2-0.1,0.4-0.3,0.6-0.3
		c0.3-0.1,0.7-0.2,1.1-0.2c0.8,0,1.4,0.2,2,0.7s0.8,1.1,0.8,1.9c0,0.8-0.2,1.5-0.7,2.1s-1.3,0.9-2.3,0.9c-0.7,0-1.3-0.2-1.8-0.6
		s-0.8-1-0.9-1.8H68.5z"/>
	<path d="M74.8,175c-0.3-0.3-0.5-0.7-0.5-1.2c0-0.6,0.2-1.2,0.7-1.6s1.1-0.7,1.9-0.7c0.8,0,1.4,0.2,1.9,0.6c0.5,0.4,0.7,0.9,0.7,1.5
		c0,0.5-0.1,0.9-0.4,1.3c-0.1,0.2-0.4,0.4-0.7,0.5c0.3,0.2,0.6,0.3,0.8,0.6c0.4,0.4,0.6,0.9,0.6,1.5c0,0.7-0.2,1.4-0.7,1.9
		s-1.2,0.8-2.1,0.8c-0.8,0-1.5-0.2-2.1-0.7s-0.8-1.1-0.8-1.9c0-0.5,0.1-0.9,0.4-1.3s0.6-0.6,1.1-0.8C75.2,175.3,75,175.2,74.8,175z
		 M78.2,178.8c0.3-0.3,0.5-0.7,0.5-1.2c0-0.5-0.2-1-0.5-1.2s-0.8-0.4-1.3-0.4c-0.5,0-0.9,0.1-1.2,0.4s-0.5,0.7-0.5,1.2
		c0,0.4,0.1,0.8,0.4,1.1s0.7,0.5,1.4,0.5C77.5,179.2,77.9,179.1,78.2,178.8z M78,174.6c0.3-0.3,0.4-0.6,0.4-0.9
		c0-0.3-0.1-0.6-0.4-0.9c-0.2-0.3-0.6-0.4-1.1-0.4c-0.5,0-0.9,0.1-1.1,0.4c-0.2,0.3-0.3,0.6-0.3,0.9c0,0.4,0.1,0.7,0.4,0.9
		c0.3,0.2,0.6,0.3,1,0.3C77.4,175,77.8,174.9,78,174.6z"/>
	<path d="M85.9,172.9c0.4,0.7,0.6,1.6,0.6,2.8c0,1.1-0.2,2.1-0.5,2.8c-0.5,1.1-1.3,1.6-2.4,1.6c-1,0-1.8-0.4-2.2-1.3
		c-0.4-0.7-0.6-1.7-0.6-2.9c0-1,0.1-1.8,0.4-2.5c0.5-1.3,1.3-1.9,2.5-1.9C84.7,171.5,85.5,172,85.9,172.9z M84.9,178.4
		c0.3-0.5,0.5-1.4,0.5-2.7c0-1-0.1-1.7-0.4-2.4c-0.2-0.6-0.7-0.9-1.4-0.9c-0.6,0-1.1,0.3-1.4,0.9c-0.3,0.6-0.4,1.4-0.4,2.6
		c0,0.9,0.1,1.5,0.3,2.1c0.3,0.8,0.8,1.2,1.4,1.2C84.1,179.2,84.6,178.9,84.9,178.4z"/>
	<path d="M92.6,172.9c0.4,0.7,0.6,1.6,0.6,2.8c0,1.1-0.2,2.1-0.5,2.8c-0.5,1.1-1.3,1.6-2.4,1.6c-1,0-1.8-0.4-2.2-1.3
		c-0.4-0.7-0.6-1.7-0.6-2.9c0-1,0.1-1.8,0.4-2.5c0.5-1.3,1.3-1.9,2.5-1.9C91.3,171.5,92.1,172,92.6,172.9z M91.6,178.4
		c0.3-0.5,0.5-1.4,0.5-2.7c0-1-0.1-1.7-0.4-2.4c-0.2-0.6-0.7-0.9-1.4-0.9c-0.6,0-1.1,0.3-1.4,0.9c-0.3,0.6-0.4,1.4-0.4,2.6
		c0,0.9,0.1,1.5,0.3,2.1c0.3,0.8,0.8,1.2,1.4,1.2C90.8,179.2,91.2,178.9,91.6,178.4z"/>
	<path d="M97.9,171.3h1.1v4.2l4.3-4.2h1.6l-3.7,3.5l3.8,5.1h-1.5l-3.1-4.3l-1.4,1.3v3h-1.1V171.3z"/>
</g>
<g>
	<path d="M3.7,389.6h3.7c1,0,1.7,0.3,2.2,0.9c0.3,0.4,0.4,0.8,0.4,1.2c0,0.5-0.2,1-0.5,1.3c-0.2,0.2-0.4,0.4-0.7,0.5
		c0.4,0.2,0.8,0.4,1,0.6c0.4,0.4,0.6,0.9,0.6,1.6c0,0.6-0.2,1.1-0.5,1.5c-0.5,0.7-1.4,1-2.5,1H3.7V389.6z M7,393.2
		c0.5,0,0.9-0.1,1.2-0.2c0.4-0.2,0.7-0.6,0.7-1.2c0-0.6-0.2-0.9-0.7-1.1c-0.3-0.1-0.6-0.2-1.2-0.2H4.8v2.7H7z M7.4,397.2
		c0.7,0,1.2-0.2,1.5-0.6c0.2-0.3,0.3-0.6,0.3-0.9c0-0.6-0.3-1.1-0.8-1.3c-0.3-0.1-0.7-0.2-1.2-0.2H4.8v3H7.4z"/>
	<path d="M16.1,392.5c0.6,0.5,0.8,1.3,0.8,2.4c0,1-0.2,1.8-0.7,2.5c-0.5,0.7-1.2,1-2.3,1c-0.9,0-1.5-0.3-2-0.9
		c-0.5-0.6-0.8-1.4-0.8-2.4c0-1.1,0.3-1.9,0.8-2.5c0.5-0.6,1.2-0.9,2.1-0.9C14.9,391.7,15.6,392,16.1,392.5z M15.5,396.7
		c0.3-0.5,0.4-1.1,0.4-1.8c0-0.6-0.1-1.1-0.3-1.4c-0.3-0.6-0.8-0.9-1.5-0.9c-0.6,0-1.1,0.2-1.4,0.7c-0.3,0.5-0.4,1.1-0.4,1.8
		c0,0.7,0.1,1.2,0.4,1.7c0.3,0.4,0.7,0.7,1.4,0.7C14.7,397.5,15.2,397.2,15.5,396.7z"/>
	<path d="M18.5,390.1h1.1v1.8h1v0.9h-1v4.1c0,0.2,0.1,0.4,0.2,0.4c0.1,0,0.2,0.1,0.4,0.1c0.1,0,0.1,0,0.2,0c0.1,0,0.1,0,0.2,0v0.8
		c-0.1,0-0.2,0.1-0.4,0.1s-0.3,0-0.4,0c-0.5,0-0.8-0.1-1-0.4s-0.3-0.6-0.3-1v-4.2h-0.8v-0.9h0.8V390.1z"/>
	<path d="M21.8,390.1h1.1v1.8h1v0.9h-1v4.1c0,0.2,0.1,0.4,0.2,0.4c0.1,0,0.2,0.1,0.4,0.1c0.1,0,0.1,0,0.2,0c0.1,0,0.1,0,0.2,0v0.8
		c-0.1,0-0.2,0.1-0.4,0.1s-0.3,0-0.4,0c-0.5,0-0.8-0.1-1-0.4s-0.3-0.6-0.3-1v-4.2h-0.8v-0.9h0.8V390.1z"/>
	<path d="M29.5,392.5c0.6,0.5,0.8,1.3,0.8,2.4c0,1-0.2,1.8-0.7,2.5c-0.5,0.7-1.2,1-2.3,1c-0.9,0-1.5-0.3-2-0.9
		c-0.5-0.6-0.8-1.4-0.8-2.4c0-1.1,0.3-1.9,0.8-2.5c0.5-0.6,1.2-0.9,2.1-0.9C28.2,391.7,28.9,392,29.5,392.5z M28.8,396.7
		c0.3-0.5,0.4-1.1,0.4-1.8c0-0.6-0.1-1.1-0.3-1.4c-0.3-0.6-0.8-0.9-1.5-0.9c-0.6,0-1.1,0.2-1.4,0.7c-0.3,0.5-0.4,1.1-0.4,1.8
		c0,0.7,0.1,1.2,0.4,1.7c0.3,0.4,0.7,0.7,1.4,0.7C28.1,397.5,28.6,397.2,28.8,396.7z"/>
	<path d="M31.6,391.9h1v0.9c0.2-0.3,0.5-0.5,0.7-0.7c0.3-0.2,0.7-0.4,1.2-0.4c0.5,0,0.9,0.1,1.2,0.4c0.2,0.1,0.3,0.3,0.5,0.6
		c0.2-0.3,0.5-0.6,0.8-0.7s0.7-0.2,1.1-0.2c0.8,0,1.4,0.3,1.7,0.9C40,393,40,393.4,40,394v4.2h-1.1v-4.4c0-0.4-0.1-0.7-0.3-0.9
		s-0.5-0.2-0.8-0.2c-0.4,0-0.8,0.1-1.1,0.4s-0.4,0.7-0.4,1.4v3.7h-1.1v-4.1c0-0.4-0.1-0.7-0.2-0.9c-0.2-0.3-0.5-0.4-0.9-0.4
		c-0.4,0-0.8,0.2-1.1,0.5s-0.5,0.9-0.5,1.7v3.3h-1.1V391.9z"/>
	<path d="M49.5,392.5c0.6,0.5,0.8,1.3,0.8,2.4c0,1-0.2,1.8-0.7,2.5c-0.5,0.7-1.2,1-2.3,1c-0.9,0-1.5-0.3-2-0.9
		c-0.5-0.6-0.8-1.4-0.8-2.4c0-1.1,0.3-1.9,0.8-2.5c0.5-0.6,1.2-0.9,2.1-0.9C48.2,391.7,48.9,392,49.5,392.5z M48.8,396.7
		c0.3-0.5,0.4-1.1,0.4-1.8c0-0.6-0.1-1.1-0.3-1.4c-0.3-0.6-0.8-0.9-1.5-0.9c-0.6,0-1.1,0.2-1.4,0.7c-0.3,0.5-0.4,1.1-0.4,1.8
		c0,0.7,0.1,1.2,0.4,1.7c0.3,0.4,0.7,0.7,1.4,0.7C48.1,397.5,48.6,397.2,48.8,396.7z"/>
	<path d="M52.1,390c0.2-0.4,0.7-0.5,1.4-0.5c0.1,0,0.1,0,0.2,0s0.2,0,0.2,0v1c-0.1,0-0.2,0-0.2,0c0,0-0.1,0-0.1,0
		c-0.3,0-0.5,0.1-0.6,0.2s-0.1,0.6-0.1,1.3H54v0.8h-1.1v5.4h-1v-5.4H51v-0.8h0.9v-1C51.9,390.5,52,390.2,52.1,390z"/>
	<path d="M58.5,389.6h3.9c0.8,0,1.4,0.2,1.8,0.6s0.7,1,0.7,1.8c0,0.7-0.2,1.3-0.6,1.8c-0.4,0.5-1.1,0.7-1.9,0.7h-2.7v3.6h-1.2V389.6
		z M63,390.7c-0.3-0.1-0.6-0.2-1.1-0.2h-2.3v3H62c0.5,0,0.9-0.1,1.3-0.3s0.5-0.6,0.5-1.2C63.7,391.4,63.5,391,63,390.7z"/>
	<path d="M66.3,389.5h1.1v3.2c0.2-0.3,0.5-0.5,0.7-0.7c0.3-0.2,0.8-0.3,1.3-0.3c0.9,0,1.5,0.3,1.9,1c0.2,0.3,0.3,0.8,0.3,1.4v4h-1.1
		v-4c0-0.5-0.1-0.8-0.2-1c-0.2-0.3-0.6-0.5-1.1-0.5c-0.4,0-0.8,0.2-1.2,0.5s-0.5,0.9-0.5,1.7v3.3h-1.1V389.5z"/>
	<path d="M77.5,392.5c0.6,0.5,0.8,1.3,0.8,2.4c0,1-0.2,1.8-0.7,2.5c-0.5,0.7-1.2,1-2.3,1c-0.9,0-1.5-0.3-2-0.9
		c-0.5-0.6-0.8-1.4-0.8-2.4c0-1.1,0.3-1.9,0.8-2.5c0.5-0.6,1.2-0.9,2.1-0.9C76.3,391.7,76.9,392,77.5,392.5z M76.8,396.7
		c0.3-0.5,0.4-1.1,0.4-1.8c0-0.6-0.1-1.1-0.3-1.4c-0.3-0.6-0.8-0.9-1.5-0.9c-0.6,0-1.1,0.2-1.4,0.7c-0.3,0.5-0.4,1.1-0.4,1.8
		c0,0.7,0.1,1.2,0.4,1.7c0.3,0.4,0.7,0.7,1.4,0.7C76.1,397.5,76.6,397.2,76.8,396.7z"/>
	<path d="M79.8,390.1h1.1v1.8h1v0.9h-1v4.1c0,0.2,0.1,0.4,0.2,0.4c0.1,0,0.2,0.1,0.4,0.1c0.1,0,0.1,0,0.2,0c0.1,0,0.1,0,0.2,0v0.8
		c-0.1,0-0.2,0.1-0.4,0.1s-0.3,0-0.4,0c-0.5,0-0.8-0.1-1-0.4s-0.3-0.6-0.3-1v-4.2H79v-0.9h0.8V390.1z"/>
	<path d="M87.5,392.5c0.6,0.5,0.8,1.3,0.8,2.4c0,1-0.2,1.8-0.7,2.5c-0.5,0.7-1.2,1-2.3,1c-0.9,0-1.5-0.3-2-0.9
		c-0.5-0.6-0.8-1.4-0.8-2.4c0-1.1,0.3-1.9,0.8-2.5c0.5-0.6,1.2-0.9,2.1-0.9C86.3,391.7,86.9,392,87.5,392.5z M86.8,396.7
		c0.3-0.5,0.4-1.1,0.4-1.8c0-0.6-0.1-1.1-0.3-1.4c-0.3-0.6-0.8-0.9-1.5-0.9c-0.6,0-1.1,0.2-1.4,0.7c-0.3,0.5-0.4,1.1-0.4,1.8
		c0,0.7,0.1,1.2,0.4,1.7c0.3,0.4,0.7,0.7,1.4,0.7C86.1,397.5,86.6,397.2,86.8,396.7z"/>
	<path d="M90.2,396.2c0,0.4,0.1,0.6,0.3,0.8c0.3,0.3,0.7,0.5,1.4,0.5c0.4,0,0.7-0.1,1.1-0.3s0.5-0.4,0.5-0.8c0-0.3-0.1-0.5-0.4-0.6
		c-0.2-0.1-0.5-0.2-0.9-0.3l-0.9-0.2c-0.5-0.1-0.9-0.3-1.2-0.4c-0.5-0.3-0.7-0.7-0.7-1.2c0-0.6,0.2-1.1,0.7-1.4
		c0.4-0.4,1-0.6,1.7-0.6c1,0,1.6,0.3,2.1,0.8c0.3,0.4,0.4,0.7,0.4,1.1h-1c0-0.2-0.1-0.5-0.3-0.6c-0.2-0.3-0.7-0.4-1.3-0.4
		c-0.4,0-0.7,0.1-0.9,0.2c-0.2,0.2-0.3,0.4-0.3,0.6c0,0.3,0.1,0.5,0.4,0.7c0.2,0.1,0.4,0.2,0.7,0.3l0.7,0.2c0.8,0.2,1.3,0.4,1.6,0.5
		c0.4,0.3,0.6,0.7,0.6,1.3c0,0.6-0.2,1-0.6,1.4c-0.4,0.4-1.1,0.6-2,0.6c-0.9,0-1.6-0.2-2-0.6s-0.6-0.9-0.6-1.6H90.2z"/>
	<path d="M95.5,391.9h1v0.8c0.2-0.3,0.4-0.5,0.7-0.7c0.4-0.2,0.8-0.4,1.3-0.4c0.7,0,1.3,0.3,1.8,0.8s0.7,1.3,0.7,2.3
		c0,1.4-0.4,2.3-1.1,2.9c-0.5,0.4-1,0.6-1.6,0.6c-0.5,0-0.9-0.1-1.2-0.3c-0.2-0.1-0.4-0.3-0.6-0.6v3.2h-1.1V391.9z M99.5,396.8
		c0.3-0.4,0.5-1,0.5-1.8c0-0.5-0.1-0.9-0.2-1.3c-0.3-0.7-0.8-1-1.5-1c-0.7,0-1.2,0.4-1.5,1.1c-0.1,0.4-0.2,0.9-0.2,1.5
		c0,0.5,0.1,0.9,0.2,1.2c0.3,0.6,0.8,1,1.5,1C98.8,397.5,99.2,397.3,99.5,396.8z"/>
	<path d="M102.3,389.5h1.1v3.2c0.2-0.3,0.5-0.5,0.7-0.7c0.3-0.2,0.8-0.3,1.3-0.3c0.9,0,1.5,0.3,1.9,1c0.2,0.3,0.3,0.8,0.3,1.4v4
		h-1.1v-4c0-0.5-0.1-0.8-0.2-1c-0.2-0.3-0.6-0.5-1.1-0.5c-0.4,0-0.8,0.2-1.2,0.5s-0.5,0.9-0.5,1.7v3.3h-1.1V389.5z"/>
	<path d="M112.8,392.1c0.4,0.2,0.7,0.5,0.9,0.8c0.2,0.3,0.3,0.7,0.4,1.1c0.1,0.3,0.1,0.8,0.1,1.4h-4.6c0,0.6,0.2,1.2,0.4,1.5
		c0.3,0.4,0.7,0.6,1.3,0.6c0.5,0,1-0.2,1.3-0.5c0.2-0.2,0.3-0.5,0.4-0.7h1c0,0.2-0.1,0.5-0.3,0.8s-0.3,0.5-0.5,0.7
		c-0.3,0.3-0.7,0.5-1.2,0.6c-0.3,0.1-0.5,0.1-0.9,0.1c-0.8,0-1.4-0.3-2-0.9c-0.5-0.6-0.8-1.4-0.8-2.4c0-1,0.3-1.8,0.8-2.5
		c0.5-0.6,1.3-0.9,2.1-0.9C112,391.8,112.4,391.9,112.8,392.1z M113.2,394.5c0-0.5-0.1-0.8-0.3-1.1c-0.3-0.5-0.8-0.8-1.4-0.8
		c-0.5,0-0.9,0.2-1.2,0.5s-0.5,0.8-0.5,1.3H113.2z"/>
	<path d="M115.7,391.9h1v1.1c0.1-0.2,0.3-0.5,0.6-0.8s0.7-0.5,1.1-0.5c0,0,0.1,0,0.1,0s0.1,0,0.2,0v1.1c-0.1,0-0.1,0-0.2,0
		s-0.1,0-0.2,0c-0.5,0-0.9,0.2-1.2,0.5s-0.4,0.7-0.4,1.2v3.6h-1.1V391.9z"/>
	<path d="M123.5,392.1c0.4,0.2,0.7,0.5,0.9,0.8c0.2,0.3,0.3,0.7,0.4,1.1c0.1,0.3,0.1,0.8,0.1,1.4h-4.6c0,0.6,0.2,1.2,0.4,1.5
		c0.3,0.4,0.7,0.6,1.3,0.6c0.5,0,1-0.2,1.3-0.5c0.2-0.2,0.3-0.5,0.4-0.7h1c0,0.2-0.1,0.5-0.3,0.8s-0.3,0.5-0.5,0.7
		c-0.3,0.3-0.7,0.5-1.2,0.6c-0.3,0.1-0.5,0.1-0.9,0.1c-0.8,0-1.4-0.3-2-0.9c-0.5-0.6-0.8-1.4-0.8-2.4c0-1,0.3-1.8,0.8-2.5
		c0.5-0.6,1.3-0.9,2.1-0.9C122.7,391.8,123.1,391.9,123.5,392.1z M123.9,394.5c0-0.5-0.1-0.8-0.3-1.1c-0.3-0.5-0.8-0.8-1.4-0.8
		c-0.5,0-0.9,0.2-1.2,0.5s-0.5,0.8-0.5,1.3H123.9z"/>
	<path d="M126.9,392h1.2v1.3h-1.2V392z M126.9,399.4c0.3-0.1,0.5-0.2,0.6-0.5c0.1-0.2,0.1-0.3,0.1-0.5c0,0,0,0,0,0s0,0,0-0.1h-0.6
		v-1.3h1.2v1.2c0,0.4-0.1,0.8-0.2,1c-0.2,0.5-0.6,0.7-1.1,0.8V399.4z"/>
	<path d="M18.5,404.6c0.6,0.6,0.9,1.2,1,2h-1.1c-0.1-0.6-0.4-1-0.8-1.3s-0.9-0.5-1.6-0.5c-0.8,0-1.5,0.3-2,0.9
		c-0.5,0.6-0.8,1.5-0.8,2.7c0,1,0.2,1.8,0.7,2.5s1.2,0.9,2.1,0.9c0.8,0,1.5-0.3,1.9-1c0.2-0.3,0.4-0.8,0.5-1.4h1.1
		c-0.1,0.9-0.4,1.7-1,2.3c-0.7,0.7-1.6,1.1-2.7,1.1c-1,0-1.8-0.3-2.5-0.9c-0.9-0.8-1.3-2-1.3-3.7c0-1.3,0.3-2.3,1-3.1
		c0.7-0.9,1.7-1.3,3-1.3C17,403.7,17.9,404,18.5,404.6z"/>
	<path d="M25.5,406.9c0.6,0.5,0.8,1.3,0.8,2.4c0,1-0.2,1.8-0.7,2.5c-0.5,0.7-1.2,1-2.3,1c-0.9,0-1.5-0.3-2-0.9
		c-0.5-0.6-0.8-1.4-0.8-2.4c0-1.1,0.3-1.9,0.8-2.5c0.5-0.6,1.2-0.9,2.1-0.9C24.2,406.1,24.9,406.4,25.5,406.9z M24.8,411.1
		c0.3-0.5,0.4-1.1,0.4-1.8c0-0.6-0.1-1.1-0.3-1.4c-0.3-0.6-0.8-0.9-1.5-0.9c-0.6,0-1.1,0.2-1.4,0.7c-0.3,0.5-0.4,1.1-0.4,1.8
		c0,0.7,0.1,1.2,0.4,1.7c0.3,0.4,0.7,0.7,1.4,0.7C24.1,411.9,24.5,411.6,24.8,411.1z"/>
	<path d="M27.6,406.3h1v0.9c0.3-0.4,0.6-0.6,0.9-0.8s0.7-0.2,1.1-0.2c0.9,0,1.5,0.3,1.8,0.9c0.2,0.3,0.3,0.8,0.3,1.5v4h-1.1v-4
		c0-0.4-0.1-0.7-0.2-0.9c-0.2-0.4-0.5-0.6-1-0.6c-0.2,0-0.5,0-0.6,0.1c-0.3,0.1-0.5,0.3-0.8,0.5c-0.2,0.2-0.3,0.4-0.3,0.6
		s-0.1,0.5-0.1,0.9v3.3h-1.1V406.3z"/>
	<path d="M34.5,404.5h1.1v1.8h1v0.9h-1v4.1c0,0.2,0.1,0.4,0.2,0.4c0.1,0,0.2,0.1,0.4,0.1c0.1,0,0.1,0,0.2,0c0.1,0,0.1,0,0.2,0v0.8
		c-0.1,0-0.2,0.1-0.4,0.1s-0.3,0-0.4,0c-0.5,0-0.8-0.1-1-0.4s-0.3-0.6-0.3-1v-4.2h-0.8v-0.9h0.8V404.5z"/>
	<path d="M37.6,404h1.1v1.2h-1.1V404z M37.6,406.3h1.1v6.2h-1.1V406.3z"/>
	<path d="M40.3,406.3h1v0.9c0.3-0.4,0.6-0.6,0.9-0.8s0.7-0.2,1.1-0.2c0.9,0,1.5,0.3,1.8,0.9c0.2,0.3,0.3,0.8,0.3,1.5v4h-1.1v-4
		c0-0.4-0.1-0.7-0.2-0.9c-0.2-0.4-0.5-0.6-1-0.6c-0.2,0-0.5,0-0.6,0.1c-0.3,0.1-0.5,0.3-0.8,0.5c-0.2,0.2-0.3,0.4-0.3,0.6
		s-0.1,0.5-0.1,0.9v3.3h-1.1V406.3z"/>
	<path d="M48,406.3v4.2c0,0.3,0,0.6,0.1,0.8c0.2,0.4,0.5,0.6,1,0.6c0.7,0,1.2-0.3,1.5-1c0.1-0.4,0.2-0.8,0.2-1.4v-3.1h1.1v6.3h-1
		l0-0.9c-0.1,0.2-0.3,0.4-0.5,0.6c-0.4,0.3-0.9,0.5-1.4,0.5c-0.9,0-1.5-0.3-1.8-0.9c-0.2-0.3-0.3-0.7-0.3-1.3v-4.3H48z"/>
	<path d="M58.2,406.9c0.6,0.5,0.8,1.3,0.8,2.4c0,1-0.2,1.8-0.7,2.5c-0.5,0.7-1.2,1-2.3,1c-0.9,0-1.5-0.3-2-0.9
		c-0.5-0.6-0.8-1.4-0.8-2.4c0-1.1,0.3-1.9,0.8-2.5c0.5-0.6,1.2-0.9,2.1-0.9C56.9,406.1,57.6,406.4,58.2,406.9z M57.5,411.1
		c0.3-0.5,0.4-1.1,0.4-1.8c0-0.6-0.1-1.1-0.3-1.4c-0.3-0.6-0.8-0.9-1.5-0.9c-0.6,0-1.1,0.2-1.4,0.7c-0.3,0.5-0.4,1.1-0.4,1.8
		c0,0.7,0.1,1.2,0.4,1.7c0.3,0.4,0.7,0.7,1.4,0.7C56.8,411.9,57.2,411.6,57.5,411.1z"/>
	<path d="M61.3,406.3v4.2c0,0.3,0,0.6,0.1,0.8c0.2,0.4,0.5,0.6,1,0.6c0.7,0,1.2-0.3,1.5-1c0.1-0.4,0.2-0.8,0.2-1.4v-3.1h1.1v6.3h-1
		l0-0.9c-0.1,0.2-0.3,0.4-0.5,0.6c-0.4,0.3-0.9,0.5-1.4,0.5c-0.9,0-1.5-0.3-1.8-0.9c-0.2-0.3-0.3-0.7-0.3-1.3v-4.3H61.3z"/>
	<path d="M67.6,410.6c0,0.4,0.1,0.6,0.3,0.8c0.3,0.3,0.7,0.5,1.4,0.5c0.4,0,0.7-0.1,1.1-0.3s0.5-0.4,0.5-0.8c0-0.3-0.1-0.5-0.4-0.6
		c-0.2-0.1-0.5-0.2-0.9-0.3l-0.9-0.2c-0.5-0.1-0.9-0.3-1.2-0.4c-0.5-0.3-0.7-0.7-0.7-1.2c0-0.6,0.2-1.1,0.7-1.4
		c0.4-0.4,1-0.6,1.7-0.6c1,0,1.6,0.3,2.1,0.8c0.3,0.4,0.4,0.7,0.4,1.1h-1c0-0.2-0.1-0.5-0.3-0.6c-0.2-0.3-0.7-0.4-1.3-0.4
		c-0.4,0-0.7,0.1-0.9,0.2c-0.2,0.2-0.3,0.4-0.3,0.6c0,0.3,0.1,0.5,0.4,0.7c0.2,0.1,0.4,0.2,0.7,0.3l0.7,0.2c0.8,0.2,1.3,0.4,1.6,0.5
		c0.4,0.3,0.6,0.7,0.6,1.3c0,0.6-0.2,1-0.6,1.4c-0.4,0.4-1.1,0.6-2,0.6c-0.9,0-1.6-0.2-2-0.6s-0.6-0.9-0.6-1.6H67.6z"/>
	<path d="M77.2,409.8c0,0.5,0.1,0.9,0.3,1.2c0.4,0.6,1,0.9,2,0.9c0.4,0,0.8-0.1,1.2-0.2c0.7-0.2,1-0.7,1-1.3c0-0.5-0.1-0.8-0.4-1
		c-0.3-0.2-0.7-0.4-1.4-0.5l-1.1-0.3c-0.7-0.2-1.3-0.4-1.6-0.6c-0.5-0.4-0.8-0.9-0.8-1.6c0-0.8,0.3-1.4,0.8-1.9
		c0.5-0.5,1.3-0.7,2.2-0.7c0.9,0,1.6,0.2,2.2,0.7s0.9,1.1,0.9,2.1h-1.1c-0.1-0.5-0.2-0.8-0.4-1.1c-0.3-0.4-0.9-0.7-1.7-0.7
		c-0.7,0-1.1,0.1-1.4,0.4c-0.3,0.3-0.4,0.6-0.4,1c0,0.4,0.2,0.7,0.5,0.9c0.2,0.1,0.7,0.3,1.5,0.5l1.2,0.3c0.6,0.1,1,0.3,1.3,0.5
		c0.5,0.4,0.8,1,0.8,1.8c0,1-0.3,1.6-1,2s-1.5,0.6-2.4,0.6c-1,0-1.9-0.3-2.5-0.8c-0.6-0.5-0.9-1.3-0.9-2.2H77.2z"/>
	<path d="M84.2,406.3h1v0.8c0.2-0.3,0.4-0.5,0.7-0.7c0.4-0.2,0.8-0.4,1.3-0.4c0.7,0,1.3,0.3,1.8,0.8s0.7,1.3,0.7,2.3
		c0,1.4-0.4,2.3-1.1,2.9c-0.5,0.4-1,0.6-1.6,0.6c-0.5,0-0.9-0.1-1.2-0.3c-0.2-0.1-0.4-0.3-0.6-0.6v3.2h-1.1V406.3z M88.2,411.2
		c0.3-0.4,0.5-1,0.5-1.8c0-0.5-0.1-0.9-0.2-1.3c-0.3-0.7-0.8-1-1.5-1c-0.7,0-1.2,0.4-1.5,1.1c-0.1,0.4-0.2,0.9-0.2,1.5
		c0,0.5,0.1,0.9,0.2,1.2c0.3,0.6,0.8,1,1.5,1C87.4,411.9,87.8,411.7,88.2,411.2z"/>
	<path d="M94.8,406.5c0.4,0.2,0.7,0.5,0.9,0.8c0.2,0.3,0.3,0.7,0.4,1.1c0.1,0.3,0.1,0.8,0.1,1.4h-4.6c0,0.6,0.2,1.2,0.4,1.5
		c0.3,0.4,0.7,0.6,1.3,0.6c0.5,0,1-0.2,1.3-0.5c0.2-0.2,0.3-0.5,0.4-0.7h1c0,0.2-0.1,0.5-0.3,0.8s-0.3,0.5-0.5,0.7
		c-0.3,0.3-0.7,0.5-1.2,0.6c-0.3,0.1-0.5,0.1-0.9,0.1c-0.8,0-1.4-0.3-2-0.9c-0.5-0.6-0.8-1.4-0.8-2.4c0-1,0.3-1.8,0.8-2.5
		c0.5-0.6,1.3-0.9,2.1-0.9C94,406.2,94.4,406.3,94.8,406.5z M95.2,408.9c0-0.5-0.1-0.8-0.3-1.1c-0.3-0.5-0.8-0.8-1.4-0.8
		c-0.5,0-0.9,0.2-1.2,0.5s-0.5,0.8-0.5,1.3H95.2z"/>
	<path d="M101.8,406.6c0.4,0.3,0.7,0.9,0.8,1.8h-1c-0.1-0.4-0.2-0.7-0.4-1s-0.6-0.4-1.1-0.4c-0.7,0-1.2,0.3-1.4,1
		c-0.2,0.4-0.3,0.9-0.3,1.6c0,0.6,0.1,1.2,0.4,1.6c0.3,0.4,0.7,0.6,1.3,0.6c0.4,0,0.8-0.1,1-0.4s0.4-0.6,0.5-1.1h1
		c-0.1,0.8-0.4,1.4-0.9,1.8s-1.1,0.6-1.8,0.6c-0.8,0-1.5-0.3-2-0.9s-0.7-1.3-0.7-2.2c0-1.1,0.3-2,0.8-2.6s1.2-0.9,2-0.9
		C100.8,406.1,101.3,406.3,101.8,406.6z"/>
	<path d="M103.8,404.5h1.1v1.8h1v0.9h-1v4.1c0,0.2,0.1,0.4,0.2,0.4c0.1,0,0.2,0.1,0.4,0.1c0.1,0,0.1,0,0.2,0c0.1,0,0.1,0,0.2,0v0.8
		c-0.1,0-0.2,0.1-0.4,0.1s-0.3,0-0.4,0c-0.5,0-0.8-0.1-1-0.4s-0.3-0.6-0.3-1v-4.2H103v-0.9h0.8V404.5z"/>
	<path d="M107,406.3h1v1.1c0.1-0.2,0.3-0.5,0.6-0.8s0.7-0.5,1.1-0.5c0,0,0.1,0,0.1,0s0.1,0,0.2,0v1.1c-0.1,0-0.1,0-0.2,0
		s-0.1,0-0.2,0c-0.5,0-0.9,0.2-1.2,0.5s-0.4,0.7-0.4,1.2v3.6H107V406.3z"/>
	<path d="M114.3,408.8c0.2,0,0.4-0.1,0.5-0.3c0-0.1,0.1-0.2,0.1-0.4c0-0.4-0.1-0.6-0.4-0.8c-0.3-0.2-0.6-0.2-1.1-0.2
		c-0.5,0-0.9,0.1-1.2,0.4c-0.1,0.2-0.2,0.4-0.3,0.7h-1c0-0.8,0.3-1.3,0.8-1.6s1-0.5,1.7-0.5c0.7,0,1.3,0.1,1.8,0.4
		c0.5,0.3,0.7,0.7,0.7,1.3v3.6c0,0.1,0,0.2,0.1,0.3s0.1,0.1,0.3,0.1c0,0,0.1,0,0.2,0s0.1,0,0.2,0v0.8c-0.2,0-0.3,0.1-0.4,0.1
		s-0.2,0-0.4,0c-0.4,0-0.6-0.1-0.8-0.4c-0.1-0.1-0.1-0.3-0.2-0.6c-0.2,0.3-0.5,0.5-0.9,0.7s-0.8,0.3-1.3,0.3c-0.6,0-1.1-0.2-1.4-0.5
		c-0.4-0.4-0.6-0.8-0.6-1.3c0-0.6,0.2-1,0.5-1.4c0.4-0.3,0.8-0.5,1.4-0.6L114.3,408.8z M112.1,411.6c0.2,0.2,0.5,0.3,0.8,0.3
		c0.4,0,0.7-0.1,1.1-0.3c0.6-0.3,0.9-0.8,0.9-1.4v-0.8c-0.1,0.1-0.3,0.2-0.5,0.2c-0.2,0.1-0.4,0.1-0.6,0.1l-0.6,0.1
		c-0.4,0.1-0.7,0.1-0.9,0.2c-0.3,0.2-0.5,0.5-0.5,0.9C111.8,411.2,111.9,411.4,112.1,411.6z"/>
	<path d="M118.2,406.4h1.2v1.3h-1.2V406.4z M118.2,413.8c0.3-0.1,0.5-0.2,0.6-0.5c0.1-0.2,0.1-0.3,0.1-0.5c0,0,0,0,0,0s0,0,0-0.1
		h-0.6v-1.3h1.2v1.2c0,0.4-0.1,0.8-0.2,1c-0.2,0.5-0.6,0.7-1.1,0.8V413.8z"/>
	<path d="M26.7,418.4v1h-2.9v7.6h-1.2v-7.6h-2.9v-1H26.7z"/>
	<path d="M27.6,418.3h1.1v3.2c0.2-0.3,0.5-0.5,0.7-0.7c0.3-0.2,0.8-0.3,1.3-0.3c0.9,0,1.5,0.3,1.9,1c0.2,0.3,0.3,0.8,0.3,1.4v4h-1.1
		v-4c0-0.5-0.1-0.8-0.2-1c-0.2-0.3-0.6-0.5-1.1-0.5c-0.4,0-0.8,0.2-1.2,0.5s-0.5,0.9-0.5,1.7v3.3h-1.1V418.3z"/>
	<path d="M38.1,420.9c0.4,0.2,0.7,0.5,0.9,0.8c0.2,0.3,0.3,0.7,0.4,1.1c0.1,0.3,0.1,0.8,0.1,1.4H35c0,0.6,0.2,1.2,0.4,1.5
		c0.3,0.4,0.7,0.6,1.3,0.6c0.5,0,1-0.2,1.3-0.5c0.2-0.2,0.3-0.5,0.4-0.7h1c0,0.2-0.1,0.5-0.3,0.8s-0.3,0.5-0.5,0.7
		c-0.3,0.3-0.7,0.5-1.2,0.6c-0.3,0.1-0.5,0.1-0.9,0.1c-0.8,0-1.4-0.3-2-0.9c-0.5-0.6-0.8-1.4-0.8-2.4c0-1,0.3-1.8,0.8-2.5
		c0.5-0.6,1.3-0.9,2.1-0.9C37.3,420.6,37.7,420.7,38.1,420.9z M38.5,423.3c0-0.5-0.1-0.8-0.3-1.1c-0.3-0.5-0.8-0.8-1.4-0.8
		c-0.5,0-0.9,0.2-1.2,0.5s-0.5,0.8-0.5,1.3H38.5z"/>
	<path d="M41,420.7h1v1.1c0.1-0.2,0.3-0.5,0.6-0.8s0.7-0.5,1.1-0.5c0,0,0.1,0,0.1,0s0.1,0,0.2,0v1.1c-0.1,0-0.1,0-0.2,0
		s-0.1,0-0.2,0c-0.5,0-0.9,0.2-1.2,0.5s-0.4,0.7-0.4,1.2v3.6H41V420.7z"/>
	<path d="M44.9,420.7h1v0.9c0.2-0.3,0.5-0.5,0.7-0.7c0.3-0.2,0.7-0.4,1.2-0.4c0.5,0,0.9,0.1,1.2,0.4c0.2,0.1,0.3,0.3,0.5,0.6
		c0.2-0.3,0.5-0.6,0.8-0.7s0.7-0.2,1.1-0.2c0.8,0,1.4,0.3,1.7,0.9c0.2,0.3,0.2,0.8,0.2,1.3v4.2h-1.1v-4.4c0-0.4-0.1-0.7-0.3-0.9
		s-0.5-0.2-0.8-0.2c-0.4,0-0.8,0.1-1.1,0.4s-0.4,0.7-0.4,1.4v3.7h-1.1v-4.1c0-0.4-0.1-0.7-0.2-0.9c-0.2-0.3-0.5-0.4-0.9-0.4
		c-0.4,0-0.8,0.2-1.1,0.5s-0.5,0.9-0.5,1.7v3.3h-1.1V420.7z"/>
	<path d="M58.3,423.2c0.2,0,0.4-0.1,0.5-0.3c0-0.1,0.1-0.2,0.1-0.4c0-0.4-0.1-0.6-0.4-0.8c-0.3-0.2-0.6-0.2-1.1-0.2
		c-0.5,0-0.9,0.1-1.2,0.4c-0.1,0.2-0.2,0.4-0.3,0.7h-1c0-0.8,0.3-1.3,0.8-1.6c0.5-0.3,1-0.5,1.7-0.5c0.7,0,1.3,0.1,1.8,0.4
		c0.5,0.3,0.7,0.7,0.7,1.3v3.6c0,0.1,0,0.2,0.1,0.3c0,0.1,0.1,0.1,0.3,0.1c0,0,0.1,0,0.2,0s0.1,0,0.2,0v0.8c-0.2,0-0.3,0.1-0.4,0.1
		s-0.2,0-0.4,0c-0.4,0-0.6-0.1-0.8-0.4c-0.1-0.1-0.1-0.3-0.2-0.6c-0.2,0.3-0.5,0.5-0.9,0.7s-0.8,0.3-1.3,0.3c-0.6,0-1.1-0.2-1.4-0.5
		c-0.4-0.4-0.6-0.8-0.6-1.3c0-0.6,0.2-1,0.5-1.4c0.4-0.3,0.8-0.5,1.4-0.6L58.3,423.2z M56.1,426c0.2,0.2,0.5,0.3,0.8,0.3
		c0.4,0,0.7-0.1,1.1-0.3c0.6-0.3,0.9-0.8,0.9-1.4v-0.8c-0.1,0.1-0.3,0.2-0.5,0.2s-0.4,0.1-0.6,0.1l-0.6,0.1
		c-0.4,0.1-0.7,0.1-0.9,0.2c-0.3,0.2-0.5,0.5-0.5,0.9C55.7,425.6,55.8,425.8,56.1,426z"/>
	<path d="M61.6,418.4h1.1v8.6h-1.1V418.4z"/>
	<path d="M67.9,418.4h3.9c0.6,0,1.2,0.1,1.6,0.3c0.8,0.4,1.2,1,1.2,2c0,0.5-0.1,0.9-0.3,1.3s-0.5,0.6-0.9,0.8
		c0.3,0.1,0.6,0.3,0.8,0.5s0.3,0.6,0.3,1.1l0,1.2c0,0.3,0,0.6,0.1,0.7c0.1,0.3,0.2,0.4,0.4,0.5v0.2h-1.4c0-0.1-0.1-0.2-0.1-0.3
		s0-0.3-0.1-0.7l-0.1-1.4c0-0.6-0.2-0.9-0.6-1.1c-0.2-0.1-0.6-0.2-1-0.2H69v3.7h-1.2V418.4z M71.7,422.3c0.5,0,1-0.1,1.3-0.3
		s0.5-0.6,0.5-1.2c0-0.6-0.2-1-0.6-1.3c-0.2-0.1-0.5-0.2-0.9-0.2H69v2.9H71.7z"/>
	<path d="M79.6,423.2c0.2,0,0.4-0.1,0.5-0.3c0-0.1,0.1-0.2,0.1-0.4c0-0.4-0.1-0.6-0.4-0.8c-0.3-0.2-0.6-0.2-1.1-0.2
		c-0.5,0-0.9,0.1-1.2,0.4c-0.1,0.2-0.2,0.4-0.3,0.7h-1c0-0.8,0.3-1.3,0.8-1.6c0.5-0.3,1-0.5,1.7-0.5c0.7,0,1.3,0.1,1.8,0.4
		c0.5,0.3,0.7,0.7,0.7,1.3v3.6c0,0.1,0,0.2,0.1,0.3c0,0.1,0.1,0.1,0.3,0.1c0,0,0.1,0,0.2,0s0.1,0,0.2,0v0.8c-0.2,0-0.3,0.1-0.4,0.1
		s-0.2,0-0.4,0c-0.4,0-0.6-0.1-0.8-0.4c-0.1-0.1-0.1-0.3-0.2-0.6c-0.2,0.3-0.5,0.5-0.9,0.7s-0.8,0.3-1.3,0.3c-0.6,0-1.1-0.2-1.4-0.5
		c-0.4-0.4-0.6-0.8-0.6-1.3c0-0.6,0.2-1,0.5-1.4c0.4-0.3,0.8-0.5,1.4-0.6L79.6,423.2z M77.4,426c0.2,0.2,0.5,0.3,0.8,0.3
		c0.4,0,0.7-0.1,1.1-0.3c0.6-0.3,0.9-0.8,0.9-1.4v-0.8c-0.1,0.1-0.3,0.2-0.5,0.2s-0.4,0.1-0.6,0.1l-0.6,0.1
		c-0.4,0.1-0.7,0.1-0.9,0.2c-0.3,0.2-0.5,0.5-0.5,0.9C77.1,425.6,77.2,425.8,77.4,426z"/>
	<path d="M86.4,420.9c0.2,0.1,0.4,0.3,0.6,0.6v-3.2h1v8.6h-0.9v-0.9c-0.2,0.4-0.5,0.7-0.9,0.8c-0.3,0.2-0.7,0.3-1.1,0.3
		c-0.7,0-1.3-0.3-1.8-0.9s-0.8-1.4-0.8-2.3c0-0.9,0.2-1.7,0.7-2.4c0.5-0.7,1.1-1,2-1C85.7,420.6,86.1,420.7,86.4,420.9z M84,425.6
		c0.3,0.5,0.7,0.7,1.4,0.7c0.5,0,0.9-0.2,1.2-0.6s0.5-1,0.5-1.8c0-0.8-0.2-1.4-0.5-1.8s-0.7-0.6-1.2-0.6c-0.5,0-1,0.2-1.3,0.6
		c-0.3,0.4-0.5,1-0.5,1.8C83.6,424.6,83.8,425.1,84,425.6z"/>
	<path d="M89.6,418.4h1.1v1.2h-1.1V418.4z M89.6,420.7h1.1v6.2h-1.1V420.7z"/>
	<path d="M95.6,423.2c0.2,0,0.4-0.1,0.5-0.3c0-0.1,0.1-0.2,0.1-0.4c0-0.4-0.1-0.6-0.4-0.8c-0.3-0.2-0.6-0.2-1.1-0.2
		c-0.5,0-0.9,0.1-1.2,0.4c-0.1,0.2-0.2,0.4-0.3,0.7h-1c0-0.8,0.3-1.3,0.8-1.6c0.5-0.3,1-0.5,1.7-0.5c0.7,0,1.3,0.1,1.8,0.4
		c0.5,0.3,0.7,0.7,0.7,1.3v3.6c0,0.1,0,0.2,0.1,0.3c0,0.1,0.1,0.1,0.3,0.1c0,0,0.1,0,0.2,0s0.1,0,0.2,0v0.8c-0.2,0-0.3,0.1-0.4,0.1
		s-0.2,0-0.4,0c-0.4,0-0.6-0.1-0.8-0.4c-0.1-0.1-0.1-0.3-0.2-0.6c-0.2,0.3-0.5,0.5-0.9,0.7s-0.8,0.3-1.3,0.3c-0.6,0-1.1-0.2-1.4-0.5
		c-0.4-0.4-0.6-0.8-0.6-1.3c0-0.6,0.2-1,0.5-1.4c0.4-0.3,0.8-0.5,1.4-0.6L95.6,423.2z M93.4,426c0.2,0.2,0.5,0.3,0.8,0.3
		c0.4,0,0.7-0.1,1.1-0.3c0.6-0.3,0.9-0.8,0.9-1.4v-0.8c-0.1,0.1-0.3,0.2-0.5,0.2s-0.4,0.1-0.6,0.1l-0.6,0.1
		c-0.4,0.1-0.7,0.1-0.9,0.2c-0.3,0.2-0.5,0.5-0.5,0.9C93.1,425.6,93.2,425.8,93.4,426z"/>
	<path d="M99.2,418.9h1.1v1.8h1v0.9h-1v4.1c0,0.2,0.1,0.4,0.2,0.4c0.1,0,0.2,0.1,0.4,0.1c0.1,0,0.1,0,0.2,0c0.1,0,0.1,0,0.2,0v0.8
		c-0.1,0-0.2,0.1-0.4,0.1s-0.3,0-0.4,0c-0.5,0-0.8-0.1-1-0.4s-0.3-0.6-0.3-1v-4.2h-0.8v-0.9h0.8V418.9z"/>
	<path d="M106.8,421.3c0.6,0.5,0.8,1.3,0.8,2.4c0,1-0.2,1.8-0.7,2.5c-0.5,0.7-1.2,1-2.3,1c-0.9,0-1.5-0.3-2-0.9
		c-0.5-0.6-0.8-1.4-0.8-2.4c0-1.1,0.3-1.9,0.8-2.5c0.5-0.6,1.2-0.9,2.1-0.9C105.6,420.5,106.3,420.8,106.8,421.3z M106.2,425.5
		c0.3-0.5,0.4-1.1,0.4-1.8c0-0.6-0.1-1.1-0.3-1.4c-0.3-0.6-0.8-0.9-1.5-0.9c-0.6,0-1.1,0.2-1.4,0.7c-0.3,0.5-0.4,1.1-0.4,1.8
		c0,0.7,0.1,1.2,0.4,1.7c0.3,0.4,0.7,0.7,1.4,0.7C105.5,426.3,105.9,426,106.2,425.5z"/>
	<path d="M109,420.7h1v1.1c0.1-0.2,0.3-0.5,0.6-0.8s0.7-0.5,1.1-0.5c0,0,0.1,0,0.1,0s0.1,0,0.2,0v1.1c-0.1,0-0.1,0-0.2,0
		s-0.1,0-0.2,0c-0.5,0-0.9,0.2-1.2,0.5s-0.4,0.7-0.4,1.2v3.6H109V420.7z"/>
</g>
<g>
	<path d="M207.6,389.6v1h-2.9v7.6h-1.2v-7.6h-2.9v-1H207.6z"/>
	<path d="M211.7,392.5c0.6,0.5,0.8,1.3,0.8,2.4c0,1-0.2,1.8-0.7,2.5c-0.5,0.7-1.2,1-2.3,1c-0.9,0-1.5-0.3-2-0.9
		c-0.5-0.6-0.8-1.4-0.8-2.4c0-1.1,0.3-1.9,0.8-2.5c0.5-0.6,1.2-0.9,2.1-0.9C210.5,391.7,211.2,392,211.7,392.5z M211.1,396.7
		c0.3-0.5,0.4-1.1,0.4-1.8c0-0.6-0.1-1.1-0.3-1.4c-0.3-0.6-0.8-0.9-1.5-0.9c-0.6,0-1.1,0.2-1.4,0.7c-0.3,0.5-0.4,1.1-0.4,1.8
		c0,0.7,0.1,1.2,0.4,1.7c0.3,0.4,0.7,0.7,1.4,0.7C210.4,397.5,210.8,397.2,211.1,396.7z"/>
	<path d="M213.8,391.9h1v0.8c0.2-0.3,0.4-0.5,0.7-0.7c0.4-0.2,0.8-0.4,1.3-0.4c0.7,0,1.3,0.3,1.8,0.8s0.7,1.3,0.7,2.3
		c0,1.4-0.4,2.3-1.1,2.9c-0.5,0.4-1,0.6-1.6,0.6c-0.5,0-0.9-0.1-1.2-0.3c-0.2-0.1-0.4-0.3-0.6-0.6v3.2h-1.1V391.9z M217.8,396.8
		c0.3-0.4,0.5-1,0.5-1.8c0-0.5-0.1-0.9-0.2-1.3c-0.3-0.7-0.8-1-1.5-1c-0.7,0-1.2,0.4-1.5,1.1c-0.1,0.4-0.2,0.9-0.2,1.5
		c0,0.5,0.1,0.9,0.2,1.2c0.3,0.6,0.8,1,1.5,1C217,397.5,217.4,397.3,217.8,396.8z"/>
	<path d="M228.4,392.5c0.6,0.5,0.8,1.3,0.8,2.4c0,1-0.2,1.8-0.7,2.5c-0.5,0.7-1.2,1-2.3,1c-0.9,0-1.5-0.3-2-0.9
		c-0.5-0.6-0.8-1.4-0.8-2.4c0-1.1,0.3-1.9,0.8-2.5c0.5-0.6,1.2-0.9,2.1-0.9C227.2,391.7,227.9,392,228.4,392.5z M227.8,396.7
		c0.3-0.5,0.4-1.1,0.4-1.8c0-0.6-0.1-1.1-0.3-1.4c-0.3-0.6-0.8-0.9-1.5-0.9c-0.6,0-1.1,0.2-1.4,0.7c-0.3,0.5-0.4,1.1-0.4,1.8
		c0,0.7,0.1,1.2,0.4,1.7c0.3,0.4,0.7,0.7,1.4,0.7C227,397.5,227.5,397.2,227.8,396.7z"/>
	<path d="M231,390c0.2-0.4,0.7-0.5,1.4-0.5c0.1,0,0.1,0,0.2,0s0.2,0,0.2,0v1c-0.1,0-0.2,0-0.2,0c0,0-0.1,0-0.1,0
		c-0.3,0-0.5,0.1-0.6,0.2s-0.1,0.6-0.1,1.3h1.1v0.8h-1.1v5.4h-1v-5.4h-0.9v-0.8h0.9v-1C230.8,390.5,230.9,390.2,231,390z"/>
	<path d="M183.8,404h3.9c0.8,0,1.4,0.2,1.8,0.6s0.7,1,0.7,1.8c0,0.7-0.2,1.3-0.6,1.8c-0.4,0.5-1.1,0.7-1.9,0.7h-2.7v3.6h-1.2V404z
		 M188.3,405.2c-0.3-0.1-0.6-0.2-1.1-0.2h-2.3v3h2.3c0.5,0,0.9-0.1,1.3-0.3s0.5-0.6,0.5-1.2C189,405.8,188.8,405.4,188.3,405.2z"/>
	<path d="M191.5,403.9h1.1v3.2c0.2-0.3,0.5-0.5,0.7-0.7c0.3-0.2,0.8-0.3,1.3-0.3c0.9,0,1.5,0.3,1.9,1c0.2,0.3,0.3,0.8,0.3,1.4v4
		h-1.1v-4c0-0.5-0.1-0.8-0.2-1c-0.2-0.3-0.6-0.5-1.1-0.5c-0.4,0-0.8,0.2-1.2,0.5s-0.5,0.9-0.5,1.7v3.3h-1.1V403.9z"/>
	<path d="M202.7,406.9c0.6,0.5,0.8,1.3,0.8,2.4c0,1-0.2,1.8-0.7,2.5c-0.5,0.7-1.2,1-2.3,1c-0.9,0-1.5-0.3-2-0.9
		c-0.5-0.6-0.8-1.4-0.8-2.4c0-1.1,0.3-1.9,0.8-2.5c0.5-0.6,1.2-0.9,2.1-0.9C201.5,406.1,202.2,406.4,202.7,406.9z M202.1,411.1
		c0.3-0.5,0.4-1.1,0.4-1.8c0-0.6-0.1-1.1-0.3-1.4c-0.3-0.6-0.8-0.9-1.5-0.9c-0.6,0-1.1,0.2-1.4,0.7c-0.3,0.5-0.4,1.1-0.4,1.8
		c0,0.7,0.1,1.2,0.4,1.7c0.3,0.4,0.7,0.7,1.4,0.7C201.4,411.9,201.8,411.6,202.1,411.1z"/>
	<path d="M205.1,404.5h1.1v1.8h1v0.9h-1v4.1c0,0.2,0.1,0.4,0.2,0.4c0.1,0,0.2,0.1,0.4,0.1c0.1,0,0.1,0,0.2,0c0.1,0,0.1,0,0.2,0v0.8
		c-0.1,0-0.2,0.1-0.4,0.1s-0.3,0-0.4,0c-0.5,0-0.8-0.1-1-0.4s-0.3-0.6-0.3-1v-4.2h-0.8v-0.9h0.8V404.5z"/>
	<path d="M212.7,406.9c0.6,0.5,0.8,1.3,0.8,2.4c0,1-0.2,1.8-0.7,2.5c-0.5,0.7-1.2,1-2.3,1c-0.9,0-1.5-0.3-2-0.9
		c-0.5-0.6-0.8-1.4-0.8-2.4c0-1.1,0.3-1.9,0.8-2.5c0.5-0.6,1.2-0.9,2.1-0.9C211.5,406.1,212.2,406.4,212.7,406.9z M212.1,411.1
		c0.3-0.5,0.4-1.1,0.4-1.8c0-0.6-0.1-1.1-0.3-1.4c-0.3-0.6-0.8-0.9-1.5-0.9c-0.6,0-1.1,0.2-1.4,0.7c-0.3,0.5-0.4,1.1-0.4,1.8
		c0,0.7,0.1,1.2,0.4,1.7c0.3,0.4,0.7,0.7,1.4,0.7C211.4,411.9,211.8,411.6,212.1,411.1z"/>
	<path d="M215.5,410.6c0,0.4,0.1,0.6,0.3,0.8c0.3,0.3,0.7,0.5,1.4,0.5c0.4,0,0.7-0.1,1.1-0.3s0.5-0.4,0.5-0.8c0-0.3-0.1-0.5-0.4-0.6
		c-0.2-0.1-0.5-0.2-0.9-0.3l-0.9-0.2c-0.5-0.1-0.9-0.3-1.2-0.4c-0.5-0.3-0.7-0.7-0.7-1.2c0-0.6,0.2-1.1,0.7-1.4
		c0.4-0.4,1-0.6,1.7-0.6c1,0,1.6,0.3,2.1,0.8c0.3,0.4,0.4,0.7,0.4,1.1h-1c0-0.2-0.1-0.5-0.3-0.6c-0.2-0.3-0.7-0.4-1.3-0.4
		c-0.4,0-0.7,0.1-0.9,0.2c-0.2,0.2-0.3,0.4-0.3,0.6c0,0.3,0.1,0.5,0.4,0.7c0.2,0.1,0.4,0.2,0.7,0.3l0.7,0.2c0.8,0.2,1.3,0.4,1.6,0.5
		c0.4,0.3,0.6,0.7,0.6,1.3c0,0.6-0.2,1-0.6,1.4c-0.4,0.4-1.1,0.6-2,0.6c-0.9,0-1.6-0.2-2-0.6s-0.6-0.9-0.6-1.6H215.5z"/>
	<path d="M220.8,406.3h1v0.8c0.2-0.3,0.4-0.5,0.7-0.7c0.4-0.2,0.8-0.4,1.3-0.4c0.7,0,1.3,0.3,1.8,0.8s0.7,1.3,0.7,2.3
		c0,1.4-0.4,2.3-1.1,2.9c-0.5,0.4-1,0.6-1.6,0.6c-0.5,0-0.9-0.1-1.2-0.3c-0.2-0.1-0.4-0.3-0.6-0.6v3.2h-1.1V406.3z M224.8,411.2
		c0.3-0.4,0.5-1,0.5-1.8c0-0.5-0.1-0.9-0.2-1.3c-0.3-0.7-0.8-1-1.5-1c-0.7,0-1.2,0.4-1.5,1.1c-0.1,0.4-0.2,0.9-0.2,1.5
		c0,0.5,0.1,0.9,0.2,1.2c0.3,0.6,0.8,1,1.5,1C224,411.9,224.4,411.7,224.8,411.2z"/>
	<path d="M227.5,403.9h1.1v3.2c0.2-0.3,0.5-0.5,0.7-0.7c0.3-0.2,0.8-0.3,1.3-0.3c0.9,0,1.5,0.3,1.9,1c0.2,0.3,0.3,0.8,0.3,1.4v4
		h-1.1v-4c0-0.5-0.1-0.8-0.2-1c-0.2-0.3-0.6-0.5-1.1-0.5c-0.4,0-0.8,0.2-1.2,0.5s-0.5,0.9-0.5,1.7v3.3h-1.1V403.9z"/>
	<path d="M238.1,406.5c0.4,0.2,0.7,0.5,0.9,0.8c0.2,0.3,0.3,0.7,0.4,1.1c0.1,0.3,0.1,0.8,0.1,1.4H235c0,0.6,0.2,1.2,0.4,1.5
		c0.3,0.4,0.7,0.6,1.3,0.6c0.5,0,1-0.2,1.3-0.5c0.2-0.2,0.3-0.5,0.4-0.7h1c0,0.2-0.1,0.5-0.3,0.8s-0.3,0.5-0.5,0.7
		c-0.3,0.3-0.7,0.5-1.2,0.6c-0.3,0.1-0.5,0.1-0.9,0.1c-0.8,0-1.4-0.3-2-0.9c-0.5-0.6-0.8-1.4-0.8-2.4c0-1,0.3-1.8,0.8-2.5
		c0.5-0.6,1.3-0.9,2.1-0.9C237.3,406.2,237.7,406.3,238.1,406.5z M238.5,408.9c0-0.5-0.1-0.8-0.3-1.1c-0.3-0.5-0.8-0.8-1.4-0.8
		c-0.5,0-0.9,0.2-1.2,0.5s-0.5,0.8-0.5,1.3H238.5z"/>
	<path d="M240.9,406.3h1v1.1c0.1-0.2,0.3-0.5,0.6-0.8s0.7-0.5,1.1-0.5c0,0,0.1,0,0.1,0s0.1,0,0.2,0v1.1c-0.1,0-0.1,0-0.2,0
		s-0.1,0-0.2,0c-0.5,0-0.9,0.2-1.2,0.5s-0.4,0.7-0.4,1.2v3.6h-1.1V406.3z"/>
	<path d="M248.8,406.5c0.4,0.2,0.7,0.5,0.9,0.8c0.2,0.3,0.3,0.7,0.4,1.1c0.1,0.3,0.1,0.8,0.1,1.4h-4.6c0,0.6,0.2,1.2,0.4,1.5
		c0.3,0.4,0.7,0.6,1.3,0.6c0.5,0,1-0.2,1.3-0.5c0.2-0.2,0.3-0.5,0.4-0.7h1c0,0.2-0.1,0.5-0.3,0.8s-0.3,0.5-0.5,0.7
		c-0.3,0.3-0.7,0.5-1.2,0.6c-0.3,0.1-0.5,0.1-0.9,0.1c-0.8,0-1.4-0.3-2-0.9c-0.5-0.6-0.8-1.4-0.8-2.4c0-1,0.3-1.8,0.8-2.5
		c0.5-0.6,1.3-0.9,2.1-0.9C247.9,406.2,248.4,406.3,248.8,406.5z M249.1,408.9c0-0.5-0.1-0.8-0.3-1.1c-0.3-0.5-0.8-0.8-1.4-0.8
		c-0.5,0-0.9,0.2-1.2,0.5s-0.5,0.8-0.5,1.3H249.1z"/>
</g>
<g>
	<path d="M142.2,348.6c0.2,0,0.4,0.1,0.6,0.2l1.3,0.5c0.2,0.1,0.4,0.1,0.5,0.2c0.2,0.1,0.4,0.1,0.5,0.1c0.3,0,0.5-0.1,0.7-0.3
		s0.3-0.5,0.4-0.8h0.7c-0.1,0.6-0.3,1.1-0.6,1.5s-0.7,0.7-1.3,0.7c-0.2,0-0.4,0-0.6-0.1c-0.1,0-0.4-0.1-0.6-0.2l-1.2-0.5
		c-0.1-0.1-0.3-0.1-0.5-0.1c-0.2,0-0.3,0-0.4,0c-0.3,0-0.6,0.1-0.8,0.4c-0.1,0.1-0.2,0.4-0.3,0.8H140c0.1-0.3,0.1-0.6,0.2-0.8
		c0.1-0.2,0.2-0.5,0.4-0.8c0.2-0.2,0.3-0.3,0.5-0.4c0.2-0.1,0.4-0.1,0.7-0.1C141.9,348.5,142,348.6,142.2,348.6z"/>
	<path d="M148.4,350.5c0.1,0.6,0.3,1,0.8,1.2c0.2,0.1,0.5,0.2,0.9,0.2c0.6,0,1.1-0.2,1.4-0.6s0.5-0.8,0.5-1.3c0-0.6-0.2-1-0.5-1.4
		s-0.8-0.5-1.3-0.5c-0.4,0-0.7,0.1-0.9,0.2s-0.5,0.3-0.7,0.6l-0.9-0.1l0.6-4.5h4.4v1H149l-0.4,2.3c0.2-0.1,0.4-0.3,0.6-0.3
		c0.3-0.1,0.7-0.2,1.1-0.2c0.8,0,1.4,0.2,2,0.7s0.8,1.1,0.8,1.9c0,0.8-0.2,1.5-0.7,2.1s-1.3,0.9-2.3,0.9c-0.7,0-1.3-0.2-1.8-0.6
		s-0.8-1-0.9-1.8H148.4z"/>
	<path d="M159.2,345.5c0.4,0.7,0.6,1.6,0.6,2.8c0,1.1-0.2,2.1-0.5,2.8c-0.5,1.1-1.3,1.6-2.4,1.6c-1,0-1.8-0.4-2.2-1.3
		c-0.4-0.7-0.6-1.7-0.6-2.9c0-1,0.1-1.8,0.4-2.5c0.5-1.3,1.3-1.9,2.5-1.9C157.9,344.2,158.7,344.7,159.2,345.5z M158.1,351.1
		c0.3-0.5,0.5-1.4,0.5-2.7c0-1-0.1-1.7-0.4-2.4c-0.2-0.6-0.7-0.9-1.4-0.9c-0.6,0-1.1,0.3-1.4,0.9c-0.3,0.6-0.4,1.4-0.4,2.6
		c0,0.9,0.1,1.5,0.3,2.1c0.3,0.8,0.8,1.2,1.4,1.2C157.3,351.9,157.8,351.6,158.1,351.1z"/>
	<path d="M165.8,345.5c0.4,0.7,0.6,1.6,0.6,2.8c0,1.1-0.2,2.1-0.5,2.8c-0.5,1.1-1.3,1.6-2.4,1.6c-1,0-1.8-0.4-2.2-1.3
		c-0.4-0.7-0.6-1.7-0.6-2.9c0-1,0.1-1.8,0.4-2.5c0.5-1.3,1.3-1.9,2.5-1.9C164.6,344.2,165.3,344.7,165.8,345.5z M164.8,351.1
		c0.3-0.5,0.5-1.4,0.5-2.7c0-1-0.1-1.7-0.4-2.4c-0.2-0.6-0.7-0.9-1.4-0.9c-0.6,0-1.1,0.3-1.4,0.9c-0.3,0.6-0.4,1.4-0.4,2.6
		c0,0.9,0.1,1.5,0.3,2.1c0.3,0.8,0.8,1.2,1.4,1.2C164,351.9,164.4,351.6,164.8,351.1z"/>
	<path d="M171,344h1v5l2.7-2.7h1.3l-2.4,2.3l2.5,3.9h-1.3l-2-3.2l-0.9,0.8v2.4h-1V344z"/>
	<path d="M177,346.3h1v0.9c0.2-0.3,0.5-0.5,0.7-0.7c0.3-0.2,0.7-0.4,1.2-0.4c0.5,0,0.9,0.1,1.2,0.4c0.2,0.1,0.3,0.3,0.5,0.6
		c0.2-0.3,0.5-0.6,0.8-0.7s0.7-0.2,1.1-0.2c0.8,0,1.4,0.3,1.7,0.9c0.2,0.3,0.2,0.8,0.2,1.3v4.2h-1.1v-4.4c0-0.4-0.1-0.7-0.3-0.9
		s-0.5-0.2-0.8-0.2c-0.4,0-0.8,0.1-1.1,0.4s-0.4,0.7-0.4,1.4v3.7h-1.1v-4.1c0-0.4-0.1-0.7-0.2-0.9c-0.2-0.3-0.5-0.4-0.9-0.4
		c-0.4,0-0.8,0.2-1.1,0.5s-0.5,0.9-0.5,1.7v3.3H177V346.3z"/>
</g>
<g>
	<path d="M153.5,106.8v-2.1h-3.7v-1l3.8-5.3h0.9v5.4h1.2v0.9h-1.2v2.1H153.5z M153.5,103.9v-3.8l-2.7,3.8H153.5z"/>
	<path d="M157.7,104.7c0.1,0.6,0.3,1,0.8,1.2c0.2,0.1,0.5,0.2,0.9,0.2c0.6,0,1.1-0.2,1.4-0.6s0.5-0.8,0.5-1.3c0-0.6-0.2-1-0.5-1.4
		s-0.8-0.5-1.3-0.5c-0.4,0-0.7,0.1-0.9,0.2s-0.5,0.3-0.7,0.6l-0.9-0.1l0.6-4.5h4.4v1h-3.6L158,102c0.2-0.1,0.4-0.3,0.6-0.3
		c0.3-0.1,0.7-0.2,1.1-0.2c0.8,0,1.4,0.2,2,0.7s0.8,1.1,0.8,1.9c0,0.8-0.2,1.5-0.7,2.1s-1.3,0.9-2.3,0.9c-0.7,0-1.3-0.2-1.8-0.6
		s-0.8-1-0.9-1.8H157.7z"/>
	<path d="M168.5,99.8c0.4,0.7,0.6,1.6,0.6,2.8c0,1.1-0.2,2.1-0.5,2.8c-0.5,1.1-1.3,1.6-2.4,1.6c-1,0-1.8-0.4-2.2-1.3
		c-0.4-0.7-0.6-1.7-0.6-2.9c0-1,0.1-1.8,0.4-2.5c0.5-1.3,1.3-1.9,2.5-1.9C167.2,98.5,168,98.9,168.5,99.8z M167.4,105.4
		c0.3-0.5,0.5-1.4,0.5-2.7c0-1-0.1-1.7-0.4-2.4c-0.2-0.6-0.7-0.9-1.4-0.9c-0.6,0-1.1,0.3-1.4,0.9c-0.3,0.6-0.4,1.4-0.4,2.6
		c0,0.9,0.1,1.5,0.3,2.1c0.3,0.8,0.8,1.2,1.4,1.2C166.7,106.1,167.1,105.9,167.4,105.4z"/>
	<path d="M175.2,99.8c0.4,0.7,0.6,1.6,0.6,2.8c0,1.1-0.2,2.1-0.5,2.8c-0.5,1.1-1.3,1.6-2.4,1.6c-1,0-1.8-0.4-2.2-1.3
		c-0.4-0.7-0.6-1.7-0.6-2.9c0-1,0.1-1.8,0.4-2.5c0.5-1.3,1.3-1.9,2.5-1.9C173.9,98.5,174.7,98.9,175.2,99.8z M174.1,105.4
		c0.3-0.5,0.5-1.4,0.5-2.7c0-1-0.1-1.7-0.4-2.4c-0.2-0.6-0.7-0.9-1.4-0.9c-0.6,0-1.1,0.3-1.4,0.9c-0.3,0.6-0.4,1.4-0.4,2.6
		c0,0.9,0.1,1.5,0.3,2.1c0.3,0.8,0.8,1.2,1.4,1.2C173.3,106.1,173.8,105.9,174.1,105.4z"/>
	<path d="M180.5,98.2h1.1v4.2l4.3-4.2h1.6l-3.7,3.5l3.8,5.1h-1.5l-3.1-4.3l-1.4,1.3v3h-1.1V98.2z"/>
</g>
<g>
	<path d="M442.4,81.7v-0.8c0.8-0.1,1.3-0.2,1.6-0.4s0.5-0.6,0.7-1.2h0.8v8.4h-1.1v-5.9H442.4z"/>
	<path d="M453.5,80.6c0.4,0.7,0.6,1.6,0.6,2.8c0,1.1-0.2,2.1-0.5,2.8c-0.5,1.1-1.3,1.6-2.4,1.6c-1,0-1.8-0.4-2.2-1.3
		c-0.4-0.7-0.6-1.7-0.6-2.9c0-1,0.1-1.8,0.4-2.5c0.5-1.3,1.3-1.9,2.5-1.9C452.2,79.3,453,79.7,453.5,80.6z M452.4,86.2
		c0.3-0.5,0.5-1.4,0.5-2.7c0-1-0.1-1.7-0.4-2.4c-0.2-0.6-0.7-0.9-1.4-0.9c-0.6,0-1.1,0.3-1.4,0.9c-0.3,0.6-0.4,1.4-0.4,2.6
		c0,0.9,0.1,1.5,0.3,2.1c0.3,0.8,0.8,1.2,1.4,1.2C451.7,87,452.1,86.7,452.4,86.2z"/>
	<path d="M460.2,80.6c0.4,0.7,0.6,1.6,0.6,2.8c0,1.1-0.2,2.1-0.5,2.8c-0.5,1.1-1.3,1.6-2.4,1.6c-1,0-1.8-0.4-2.2-1.3
		c-0.4-0.7-0.6-1.7-0.6-2.9c0-1,0.1-1.8,0.4-2.5c0.5-1.3,1.3-1.9,2.5-1.9C458.9,79.3,459.7,79.7,460.2,80.6z M459.1,86.2
		c0.3-0.5,0.5-1.4,0.5-2.7c0-1-0.1-1.7-0.4-2.4c-0.2-0.6-0.7-0.9-1.4-0.9c-0.6,0-1.1,0.3-1.4,0.9c-0.3,0.6-0.4,1.4-0.4,2.6
		c0,0.9,0.1,1.5,0.3,2.1c0.3,0.8,0.8,1.2,1.4,1.2C458.3,87,458.8,86.7,459.1,86.2z"/>
	<path d="M465.1,80.1c0.4,0.4,0.6,0.9,0.6,1.4s-0.2,1-0.6,1.4s-0.9,0.6-1.4,0.6c-0.6,0-1-0.2-1.4-0.6s-0.6-0.9-0.6-1.4
		s0.2-1,0.6-1.4s0.9-0.6,1.4-0.6C464.2,79.5,464.7,79.7,465.1,80.1z M464.5,82.4c0.2-0.2,0.4-0.5,0.4-0.9s-0.1-0.6-0.4-0.9
		s-0.5-0.4-0.9-0.4c-0.3,0-0.6,0.1-0.9,0.4s-0.4,0.5-0.4,0.9c0,0.3,0.1,0.6,0.4,0.9s0.5,0.4,0.9,0.4C464,82.8,464.3,82.7,464.5,82.4
		z M468.6,79.3h0.7l-4.7,8.6h-0.7L468.6,79.3z M470.9,84.2c0.4,0.4,0.6,0.9,0.6,1.4s-0.2,1-0.6,1.4s-0.9,0.6-1.4,0.6
		c-0.6,0-1-0.2-1.4-0.6s-0.6-0.9-0.6-1.4s0.2-1,0.6-1.4s0.9-0.6,1.4-0.6C470,83.6,470.5,83.8,470.9,84.2z M470.3,86.5
		c0.2-0.2,0.4-0.5,0.4-0.9s-0.1-0.6-0.4-0.9s-0.5-0.4-0.9-0.4c-0.3,0-0.6,0.1-0.9,0.4s-0.4,0.5-0.4,0.9s0.1,0.6,0.4,0.9
		c0.2,0.2,0.5,0.4,0.9,0.4C469.7,86.9,470,86.7,470.3,86.5z"/>
	<path d="M478.8,78.9c-0.6,1.2-1,2.1-1.2,2.6c-0.3,0.9-0.4,1.8-0.4,3c0,1.1,0.2,2.2,0.5,3.1c0.2,0.6,0.6,1.4,1.2,2.5h-0.7
		c-0.6-0.9-0.9-1.5-1.1-1.7s-0.3-0.6-0.4-1c-0.2-0.6-0.4-1.2-0.5-1.9c0-0.3-0.1-0.7-0.1-1c0-1.2,0.2-2.2,0.5-3.1
		c0.2-0.6,0.7-1.4,1.4-2.6H478.8z"/>
	<path d="M480.1,79.1h3.7c1,0,1.7,0.3,2.2,0.9c0.3,0.4,0.4,0.8,0.4,1.2c0,0.5-0.2,1-0.5,1.3c-0.2,0.2-0.4,0.4-0.7,0.5
		c0.4,0.2,0.8,0.4,1,0.6c0.4,0.4,0.6,0.9,0.6,1.6c0,0.6-0.2,1.1-0.5,1.5c-0.5,0.7-1.4,1-2.5,1h-3.7V79.1z M483.4,82.7
		c0.5,0,0.9-0.1,1.2-0.2c0.4-0.2,0.7-0.6,0.7-1.2c0-0.6-0.2-0.9-0.7-1.1c-0.3-0.1-0.6-0.2-1.2-0.2h-2.1v2.7H483.4z M483.8,86.7
		c0.7,0,1.2-0.2,1.5-0.6c0.2-0.3,0.3-0.6,0.3-0.9c0-0.6-0.3-1.1-0.8-1.3c-0.3-0.1-0.7-0.2-1.2-0.2h-2.3v3H483.8z"/>
	<path d="M488,81.4h1v1.1c0.1-0.2,0.3-0.5,0.6-0.8s0.7-0.5,1.1-0.5c0,0,0.1,0,0.1,0s0.1,0,0.2,0v1.1c-0.1,0-0.1,0-0.2,0
		s-0.1,0-0.2,0c-0.5,0-0.9,0.2-1.2,0.5s-0.4,0.7-0.4,1.2v3.6H488V81.4z"/>
	<path d="M492,79.1h1.1v1.2H492V79.1z M492,81.4h1.1v6.2H492V81.4z"/>
	<path d="M498.2,81.7c0.2,0.1,0.4,0.3,0.6,0.6v-0.8h1v5.7c0,0.8-0.1,1.4-0.4,1.9c-0.4,0.9-1.3,1.3-2.5,1.3c-0.7,0-1.2-0.2-1.7-0.5
		c-0.5-0.3-0.7-0.8-0.8-1.4h1.1c0.1,0.3,0.2,0.5,0.3,0.7c0.2,0.2,0.6,0.4,1.1,0.4c0.8,0,1.3-0.3,1.6-0.9c0.1-0.3,0.2-0.9,0.2-1.8
		c-0.2,0.3-0.5,0.6-0.8,0.7c-0.3,0.2-0.7,0.2-1.2,0.2c-0.7,0-1.3-0.2-1.8-0.7s-0.8-1.3-0.8-2.4c0-1.1,0.3-1.9,0.8-2.5
		s1.1-0.9,1.9-0.9C497.4,81.3,497.8,81.4,498.2,81.7z M498.3,82.8c-0.3-0.4-0.7-0.6-1.2-0.6c-0.7,0-1.2,0.3-1.5,1
		c-0.1,0.4-0.2,0.9-0.2,1.5c0,0.7,0.1,1.2,0.4,1.6c0.3,0.4,0.7,0.6,1.2,0.6c0.8,0,1.3-0.3,1.6-1c0.2-0.4,0.3-0.8,0.3-1.4
		C498.8,83.7,498.6,83.2,498.3,82.8z"/>
	<path d="M501.3,79h1.1v3.2c0.2-0.3,0.5-0.5,0.7-0.7c0.3-0.2,0.8-0.3,1.3-0.3c0.9,0,1.5,0.3,1.9,1c0.2,0.3,0.3,0.8,0.3,1.4v4h-1.1
		v-4c0-0.5-0.1-0.8-0.2-1c-0.2-0.3-0.6-0.5-1.1-0.5c-0.4,0-0.8,0.2-1.2,0.5s-0.5,0.9-0.5,1.7v3.3h-1.1V79z"/>
	<path d="M508.2,79.7h1.1v1.8h1v0.9h-1v4.1c0,0.2,0.1,0.4,0.2,0.4c0.1,0,0.2,0.1,0.4,0.1c0.1,0,0.1,0,0.2,0s0.1,0,0.2,0v0.8
		c-0.1,0-0.2,0.1-0.4,0.1s-0.3,0-0.4,0c-0.5,0-0.8-0.1-1-0.4s-0.3-0.6-0.3-1v-4.2h-0.8v-0.9h0.8V79.7z"/>
	<path d="M511,90.1c0.6-1.2,1-2.1,1.2-2.6c0.3-0.8,0.4-1.8,0.4-3s-0.2-2.2-0.5-3.1c-0.2-0.6-0.6-1.4-1.2-2.5h0.7
		c0.6,1,1,1.6,1.1,1.8s0.3,0.5,0.4,0.9c0.2,0.5,0.3,1,0.4,1.4s0.1,0.9,0.1,1.4c0,1.2-0.2,2.2-0.6,3.1c-0.2,0.6-0.7,1.4-1.4,2.6H511z
		"/>
</g>
<g>
	<path d="M446.8,169.1c0.4,0.7,0.6,1.6,0.6,2.8c0,1.1-0.2,2.1-0.5,2.8c-0.5,1.1-1.3,1.6-2.4,1.6c-1,0-1.8-0.4-2.2-1.3
		c-0.4-0.7-0.6-1.7-0.6-2.9c0-1,0.1-1.8,0.4-2.5c0.5-1.3,1.3-1.9,2.5-1.9C445.5,167.8,446.3,168.2,446.8,169.1z M445.8,174.7
		c0.3-0.5,0.5-1.4,0.5-2.7c0-1-0.1-1.7-0.4-2.4s-0.7-0.9-1.4-0.9c-0.6,0-1.1,0.3-1.4,0.9c-0.3,0.6-0.4,1.4-0.4,2.6
		c0,0.9,0.1,1.5,0.3,2.1c0.3,0.8,0.8,1.2,1.4,1.2C445,175.4,445.4,175.2,445.8,174.7z"/>
	<path d="M451.8,168.6c0.4,0.4,0.6,0.9,0.6,1.4s-0.2,1-0.6,1.4s-0.9,0.6-1.4,0.6c-0.6,0-1-0.2-1.4-0.6s-0.6-0.9-0.6-1.4
		s0.2-1,0.6-1.4s0.9-0.6,1.4-0.6C450.9,168,451.4,168.2,451.8,168.6z M451.2,170.9c0.2-0.2,0.4-0.5,0.4-0.9s-0.1-0.6-0.4-0.9
		s-0.5-0.4-0.9-0.4c-0.3,0-0.6,0.1-0.9,0.4s-0.4,0.5-0.4,0.9c0,0.3,0.1,0.6,0.4,0.9s0.5,0.4,0.9,0.4
		C450.6,171.3,450.9,171.2,451.2,170.9z M455.2,167.8h0.7l-4.7,8.6h-0.7L455.2,167.8z M457.5,172.7c0.4,0.4,0.6,0.9,0.6,1.4
		s-0.2,1-0.6,1.4s-0.9,0.6-1.4,0.6c-0.6,0-1-0.2-1.4-0.6s-0.6-0.9-0.6-1.4s0.2-1,0.6-1.4s0.9-0.6,1.4-0.6
		C456.6,172.1,457.1,172.3,457.5,172.7z M456.9,175c0.2-0.2,0.4-0.5,0.4-0.9s-0.1-0.6-0.4-0.9s-0.5-0.4-0.9-0.4
		c-0.3,0-0.6,0.1-0.9,0.4s-0.4,0.5-0.4,0.9s0.1,0.6,0.4,0.9c0.2,0.2,0.5,0.4,0.9,0.4C456.4,175.3,456.7,175.2,456.9,175z"/>
	<path d="M465.4,167.4c-0.6,1.2-1,2.1-1.2,2.6c-0.3,0.9-0.4,1.8-0.4,3c0,1.1,0.2,2.2,0.5,3.1c0.2,0.6,0.6,1.4,1.2,2.5h-0.7
		c-0.6-0.9-0.9-1.5-1.1-1.7s-0.3-0.6-0.4-1c-0.2-0.6-0.4-1.2-0.5-1.9c0-0.3-0.1-0.7-0.1-1c0-1.2,0.2-2.2,0.5-3.1
		c0.2-0.6,0.7-1.4,1.4-2.6H465.4z"/>
	<path d="M466.9,167.6h3.4c1.2,0,2.1,0.4,2.7,1.3c0.6,0.8,0.9,1.7,0.9,2.9c0,0.9-0.2,1.7-0.5,2.5c-0.6,1.3-1.6,2-3.1,2h-3.4V167.6z
		 M470.1,175.2c0.4,0,0.7,0,1-0.1c0.4-0.2,0.8-0.4,1.1-0.9c0.2-0.3,0.4-0.8,0.5-1.3c0.1-0.3,0.1-0.6,0.1-0.9c0-1.1-0.2-1.9-0.6-2.5
		c-0.4-0.6-1.1-0.9-2-0.9h-2v6.6H470.1z"/>
	<path d="M478.7,172.4c0.2,0,0.4-0.1,0.5-0.3c0-0.1,0.1-0.2,0.1-0.4c0-0.4-0.1-0.6-0.4-0.8c-0.3-0.2-0.6-0.2-1.1-0.2
		c-0.5,0-0.9,0.1-1.2,0.4c-0.1,0.2-0.2,0.4-0.3,0.7h-1c0-0.8,0.3-1.3,0.8-1.6c0.5-0.3,1-0.5,1.7-0.5c0.7,0,1.3,0.1,1.8,0.4
		c0.5,0.3,0.7,0.7,0.7,1.3v3.6c0,0.1,0,0.2,0.1,0.3c0,0.1,0.1,0.1,0.3,0.1c0,0,0.1,0,0.2,0s0.1,0,0.2,0v0.8c-0.2,0-0.3,0.1-0.4,0.1
		s-0.2,0-0.4,0c-0.4,0-0.6-0.1-0.8-0.4c-0.1-0.1-0.1-0.3-0.2-0.6c-0.2,0.3-0.5,0.5-0.9,0.7s-0.8,0.3-1.3,0.3c-0.6,0-1.1-0.2-1.4-0.5
		s-0.6-0.8-0.6-1.3c0-0.6,0.2-1,0.5-1.4s0.8-0.5,1.4-0.6L478.7,172.4z M476.5,175.2c0.2,0.2,0.5,0.3,0.8,0.3c0.4,0,0.7-0.1,1.1-0.3
		c0.6-0.3,0.9-0.8,0.9-1.4V173c-0.1,0.1-0.3,0.2-0.5,0.2c-0.2,0.1-0.4,0.1-0.6,0.1l-0.6,0.1c-0.4,0.1-0.7,0.1-0.9,0.2
		c-0.3,0.2-0.5,0.5-0.5,0.9C476.1,174.8,476.2,175,476.5,175.2z"/>
	<path d="M482,169.9h1v1.1c0.1-0.2,0.3-0.5,0.6-0.8s0.7-0.5,1.1-0.5c0,0,0.1,0,0.1,0s0.1,0,0.2,0v1.1c-0.1,0-0.1,0-0.2,0
		s-0.1,0-0.2,0c-0.5,0-0.9,0.2-1.2,0.5s-0.4,0.7-0.4,1.2v3.6H482V169.9z"/>
	<path d="M486,167.6h1v5l2.7-2.7h1.3l-2.4,2.3l2.5,3.9h-1.3l-2-3.2l-0.9,0.8v2.4h-1V167.6z"/>
	<path d="M491.6,178.6c0.6-1.2,1-2.1,1.2-2.6c0.3-0.8,0.4-1.8,0.4-3s-0.2-2.2-0.5-3.1c-0.2-0.6-0.6-1.4-1.2-2.5h0.7
		c0.6,1,1,1.6,1.1,1.8s0.3,0.5,0.4,0.9c0.2,0.5,0.3,1,0.4,1.4s0.1,0.9,0.1,1.4c0,1.2-0.2,2.2-0.6,3.1c-0.2,0.6-0.7,1.4-1.4,2.6
		H491.6z"/>
</g>
<g>
	<path d="M368,183.1l1.6,7l1.9-7h1.3l2,7l1.6-7h1.3l-2.3,8.6h-1.2l-2-7.1l-2,7.1H369l-2.2-8.6H368z"/>
	<path d="M381.6,187.9c0.2,0,0.4-0.1,0.5-0.3c0-0.1,0.1-0.2,0.1-0.4c0-0.4-0.1-0.6-0.4-0.8s-0.6-0.2-1.1-0.2c-0.5,0-0.9,0.1-1.2,0.4
		c-0.1,0.2-0.2,0.4-0.3,0.7h-1c0-0.8,0.3-1.3,0.8-1.6c0.5-0.3,1-0.5,1.7-0.5c0.7,0,1.3,0.1,1.8,0.4c0.5,0.3,0.7,0.7,0.7,1.3v3.6
		c0,0.1,0,0.2,0.1,0.3c0,0.1,0.1,0.1,0.3,0.1c0,0,0.1,0,0.2,0s0.1,0,0.2,0v0.8c-0.2,0-0.3,0.1-0.4,0.1s-0.2,0-0.4,0
		c-0.4,0-0.6-0.1-0.8-0.4c-0.1-0.1-0.1-0.3-0.2-0.6c-0.2,0.3-0.5,0.5-0.9,0.7s-0.8,0.3-1.3,0.3c-0.6,0-1.1-0.2-1.4-0.5
		s-0.6-0.8-0.6-1.3c0-0.6,0.2-1,0.5-1.4s0.8-0.5,1.4-0.6L381.6,187.9z M379.3,190.8c0.2,0.2,0.5,0.3,0.8,0.3c0.4,0,0.7-0.1,1.1-0.3
		c0.6-0.3,0.9-0.8,0.9-1.4v-0.8c-0.1,0.1-0.3,0.2-0.5,0.2c-0.2,0.1-0.4,0.1-0.6,0.1l-0.6,0.1c-0.4,0.1-0.7,0.1-0.9,0.2
		c-0.3,0.2-0.5,0.5-0.5,0.9C379,190.4,379.1,190.6,379.3,190.8z"/>
	<path d="M385.4,185.4l1.7,5.1l1.7-5.1h1.2l-2.4,6.3h-1.1l-2.3-6.3H385.4z"/>
	<path d="M394.8,185.6c0.4,0.2,0.7,0.5,0.9,0.8c0.2,0.3,0.3,0.7,0.4,1.1c0.1,0.3,0.1,0.8,0.1,1.4h-4.6c0,0.6,0.2,1.2,0.4,1.5
		c0.3,0.4,0.7,0.6,1.3,0.6c0.5,0,1-0.2,1.3-0.5c0.2-0.2,0.3-0.5,0.4-0.7h1c0,0.2-0.1,0.5-0.3,0.8s-0.3,0.5-0.5,0.7
		c-0.3,0.3-0.7,0.5-1.2,0.6c-0.3,0.1-0.5,0.1-0.9,0.1c-0.8,0-1.4-0.3-2-0.9s-0.8-1.4-0.8-2.4c0-1,0.3-1.8,0.8-2.5s1.3-0.9,2.1-0.9
		C393.9,185.3,394.3,185.4,394.8,185.6z M395.1,188.1c0-0.5-0.1-0.8-0.3-1.1c-0.3-0.5-0.8-0.8-1.4-0.8c-0.5,0-0.9,0.2-1.2,0.5
		s-0.5,0.8-0.5,1.3H395.1z"/>
	<path d="M397.6,183.1h1.1v8.6h-1.1V183.1z"/>
	<path d="M404.1,185.6c0.4,0.2,0.7,0.5,0.9,0.8c0.2,0.3,0.3,0.7,0.4,1.1c0.1,0.3,0.1,0.8,0.1,1.4H401c0,0.6,0.2,1.2,0.4,1.5
		c0.3,0.4,0.7,0.6,1.3,0.6c0.5,0,1-0.2,1.3-0.5c0.2-0.2,0.3-0.5,0.4-0.7h1c0,0.2-0.1,0.5-0.3,0.8s-0.3,0.5-0.5,0.7
		c-0.3,0.3-0.7,0.5-1.2,0.6c-0.3,0.1-0.5,0.1-0.9,0.1c-0.8,0-1.4-0.3-2-0.9s-0.8-1.4-0.8-2.4c0-1,0.3-1.8,0.8-2.5s1.3-0.9,2.1-0.9
		C403.2,185.3,403.7,185.4,404.1,185.6z M404.5,188.1c0-0.5-0.1-0.8-0.3-1.1c-0.3-0.5-0.8-0.8-1.4-0.8c-0.5,0-0.9,0.2-1.2,0.5
		s-0.5,0.8-0.5,1.3H404.5z"/>
	<path d="M406.9,185.4h1v0.9c0.3-0.4,0.6-0.6,0.9-0.8s0.7-0.2,1.1-0.2c0.9,0,1.5,0.3,1.8,0.9c0.2,0.3,0.3,0.8,0.3,1.5v4h-1.1v-4
		c0-0.4-0.1-0.7-0.2-0.9c-0.2-0.4-0.5-0.6-1-0.6c-0.2,0-0.5,0-0.6,0.1c-0.3,0.1-0.5,0.3-0.8,0.5c-0.2,0.2-0.3,0.4-0.3,0.6
		s-0.1,0.5-0.1,0.9v3.3h-1.1V185.4z"/>
	<path d="M417.1,185.7c0.2,0.1,0.4,0.3,0.6,0.6v-0.8h1v5.7c0,0.8-0.1,1.4-0.4,1.9c-0.4,0.9-1.3,1.3-2.5,1.3c-0.7,0-1.2-0.2-1.7-0.5
		c-0.5-0.3-0.7-0.8-0.8-1.4h1.1c0.1,0.3,0.2,0.5,0.3,0.7c0.2,0.2,0.6,0.4,1.1,0.4c0.8,0,1.3-0.3,1.6-0.9c0.1-0.3,0.2-0.9,0.2-1.8
		c-0.2,0.3-0.5,0.6-0.8,0.7c-0.3,0.2-0.7,0.2-1.2,0.2c-0.7,0-1.3-0.2-1.8-0.7s-0.8-1.3-0.8-2.4c0-1.1,0.3-1.9,0.8-2.5
		s1.1-0.9,1.9-0.9C416.3,185.3,416.7,185.5,417.1,185.7z M417.2,186.8c-0.3-0.4-0.7-0.6-1.2-0.6c-0.7,0-1.2,0.3-1.5,1
		c-0.1,0.4-0.2,0.9-0.2,1.5c0,0.7,0.1,1.2,0.4,1.6c0.3,0.4,0.7,0.6,1.2,0.6c0.8,0,1.3-0.3,1.6-1c0.2-0.4,0.3-0.8,0.3-1.4
		C417.7,187.8,417.5,187.2,417.2,186.8z"/>
	<path d="M420.5,183.7h1.1v1.8h1v0.9h-1v4.1c0,0.2,0.1,0.4,0.2,0.4c0.1,0,0.2,0.1,0.4,0.1c0.1,0,0.1,0,0.2,0s0.1,0,0.2,0v0.8
		c-0.1,0-0.2,0.1-0.4,0.1s-0.3,0-0.4,0c-0.5,0-0.8-0.1-1-0.4s-0.3-0.6-0.3-1v-4.2h-0.8v-0.9h0.8V183.7z"/>
	<path d="M423.6,183.1h1.1v3.2c0.2-0.3,0.5-0.5,0.7-0.7c0.3-0.2,0.8-0.3,1.3-0.3c0.9,0,1.5,0.3,1.9,1c0.2,0.3,0.3,0.8,0.3,1.4v4
		h-1.1v-4c0-0.5-0.1-0.8-0.2-1c-0.2-0.3-0.6-0.5-1.1-0.5c-0.4,0-0.8,0.2-1.2,0.5s-0.5,0.9-0.5,1.7v3.3h-1.1V183.1z"/>
</g>
<g>
	<path d="M440.3,119.2h1.2v8.6h-1.2V119.2z"/>
	<path d="M443.3,121.6h1v0.9c0.3-0.4,0.6-0.6,0.9-0.8s0.7-0.2,1.1-0.2c0.9,0,1.5,0.3,1.8,0.9c0.2,0.3,0.3,0.8,0.3,1.5v4h-1.1v-4
		c0-0.4-0.1-0.7-0.2-0.9c-0.2-0.4-0.5-0.6-1-0.6c-0.2,0-0.5,0-0.6,0.1c-0.3,0.1-0.5,0.3-0.8,0.5c-0.2,0.2-0.3,0.4-0.3,0.6
		s-0.1,0.5-0.1,0.9v3.3h-1.1V121.6z"/>
	<path d="M450.2,119.8h1.1v1.8h1v0.9h-1v4.1c0,0.2,0.1,0.4,0.2,0.4c0.1,0,0.2,0.1,0.4,0.1c0.1,0,0.1,0,0.2,0s0.1,0,0.2,0v0.8
		c-0.1,0-0.2,0.1-0.4,0.1s-0.3,0-0.4,0c-0.5,0-0.8-0.1-1-0.4s-0.3-0.6-0.3-1v-4.2h-0.8v-0.9h0.8V119.8z"/>
	<path d="M457.2,121.8c0.4,0.2,0.7,0.5,0.9,0.8c0.2,0.3,0.3,0.7,0.4,1.1c0.1,0.3,0.1,0.8,0.1,1.4h-4.6c0,0.6,0.2,1.2,0.4,1.5
		s0.7,0.6,1.3,0.6c0.5,0,1-0.2,1.3-0.5c0.2-0.2,0.3-0.5,0.4-0.7h1c0,0.2-0.1,0.5-0.3,0.8s-0.3,0.5-0.5,0.7c-0.3,0.3-0.7,0.5-1.2,0.6
		c-0.3,0.1-0.5,0.1-0.9,0.1c-0.8,0-1.4-0.3-2-0.9c-0.5-0.6-0.8-1.4-0.8-2.4c0-1,0.3-1.8,0.8-2.5c0.5-0.6,1.3-0.9,2.1-0.9
		C456.3,121.4,456.7,121.5,457.2,121.8z M457.5,124.2c0-0.5-0.1-0.8-0.3-1.1c-0.3-0.5-0.8-0.8-1.4-0.8c-0.5,0-0.9,0.2-1.2,0.5
		s-0.5,0.8-0.5,1.3H457.5z"/>
	<path d="M460,121.6h1v0.9c0.3-0.4,0.6-0.6,0.9-0.8s0.7-0.2,1.1-0.2c0.9,0,1.5,0.3,1.8,0.9c0.2,0.3,0.3,0.8,0.3,1.5v4H464v-4
		c0-0.4-0.1-0.7-0.2-0.9c-0.2-0.4-0.5-0.6-1-0.6c-0.2,0-0.5,0-0.6,0.1c-0.3,0.1-0.5,0.3-0.8,0.5c-0.2,0.2-0.3,0.4-0.3,0.6
		s-0.1,0.5-0.1,0.9v3.3H460V121.6z"/>
	<path d="M467.3,125.9c0,0.4,0.1,0.6,0.3,0.8c0.3,0.3,0.7,0.5,1.4,0.5c0.4,0,0.7-0.1,1.1-0.3c0.3-0.2,0.5-0.4,0.5-0.8
		c0-0.3-0.1-0.5-0.4-0.6c-0.2-0.1-0.5-0.2-0.9-0.3l-0.9-0.2c-0.5-0.1-0.9-0.3-1.2-0.4c-0.5-0.3-0.7-0.7-0.7-1.2
		c0-0.6,0.2-1.1,0.7-1.4c0.4-0.4,1-0.6,1.7-0.6c1,0,1.6,0.3,2.1,0.8c0.3,0.4,0.4,0.7,0.4,1.1h-1c0-0.2-0.1-0.5-0.3-0.6
		c-0.2-0.3-0.7-0.4-1.3-0.4c-0.4,0-0.7,0.1-0.9,0.2s-0.3,0.4-0.3,0.6c0,0.3,0.1,0.5,0.4,0.7c0.2,0.1,0.4,0.2,0.7,0.3l0.7,0.2
		c0.8,0.2,1.3,0.4,1.6,0.5c0.4,0.3,0.6,0.7,0.6,1.3c0,0.6-0.2,1-0.6,1.4c-0.4,0.4-1.1,0.6-2,0.6c-0.9,0-1.6-0.2-2-0.6
		s-0.6-0.9-0.6-1.6H467.3z"/>
	<path d="M472.6,119.2h1.1v1.2h-1.1V119.2z M472.6,121.6h1.1v6.2h-1.1V121.6z"/>
	<path d="M475.5,119.8h1.1v1.8h1v0.9h-1v4.1c0,0.2,0.1,0.4,0.2,0.4c0.1,0,0.2,0.1,0.4,0.1c0.1,0,0.1,0,0.2,0s0.1,0,0.2,0v0.8
		c-0.1,0-0.2,0.1-0.4,0.1s-0.3,0-0.4,0c-0.5,0-0.8-0.1-1-0.4s-0.3-0.6-0.3-1v-4.2h-0.8v-0.9h0.8V119.8z"/>
	<path d="M482.6,121.6h1.2c-0.1,0.4-0.5,1.3-1,2.8c-0.4,1.1-0.7,2-1,2.6c-0.6,1.6-1,2.6-1.3,2.9c-0.2,0.4-0.7,0.5-1.3,0.5
		c-0.1,0-0.3,0-0.3,0c-0.1,0-0.2,0-0.3-0.1v-1c0.2,0.1,0.3,0.1,0.4,0.1s0.2,0,0.2,0c0.2,0,0.3,0,0.4-0.1c0.1-0.1,0.2-0.1,0.2-0.2
		c0,0,0.1-0.2,0.2-0.5s0.2-0.5,0.3-0.6l-2.3-6.5h1.2l1.7,5.1L482.6,121.6z"/>
</g>
<g>
	<g>
		<line class="st1" x1="58.3" y1="385.8" x2="87.9" y2="374.8"/>
		<g>
			<polygon points="87.1,378.2 96.2,371.7 85,372.8 			"/>
		</g>
	</g>
</g>
<g>
	<g>
		<line class="st1" x1="216.8" y1="385.4" x2="216.8" y2="381.5"/>
		<g>
			<polygon points="219.7,383.4 216.8,372.6 213.9,383.4 			"/>
		</g>
	</g>
</g>
<line class="st2" x1="436.7" y1="71.2" x2="436.7" y2="175.5"/>
<line class="st2" x1="436.7" y1="176.2" x2="317.7" y2="176.2"/>
<path class="st2" d="M317.7,84.2c16.9,0,32.2-0.6,42.9,14.9c8.1,11.7,11.4,25.4,15.7,38.8c1.7,5.3,2.6,12.6,7,16.5
	c5.9,5.2,10.5,0.3,13.1-5.5c5.5-11.7,5.8-26.5,9.6-38.9c2-6.8,4.8-13.3,10-18.2c6.4-6.1,12.2-7.6,20.7-7.6"/>
<g>
	<g>
		<line class="st3" x1="115" y1="287.7" x2="116.4" y2="286.3"/>
		<line class="st4" x1="119.2" y1="283.5" x2="308.6" y2="94.5"/>
		<line class="st3" x1="310" y1="93.1" x2="311.4" y2="91.7"/>
		<g>
			<polygon class="st5" points="312,95.1 317.7,85.4 307.9,91 			"/>
		</g>
	</g>
</g>
<g>
	<g>
		<line class="st3" x1="175" y1="287.7" x2="176.5" y2="286.3"/>
		<line class="st6" x1="179.4" y1="283.6" x2="356.1" y2="119.4"/>
		<line class="st3" x1="357.5" y1="118.1" x2="359" y2="116.7"/>
		<g>
			<polygon class="st5" points="359.5,120.2 365.5,110.7 355.6,115.9 			"/>
		</g>
	</g>
</g>
<g>
	<g>
		<line class="st3" x1="226.5" y1="286.7" x2="228.1" y2="285.4"/>
		<line class="st7" x1="231.1" y1="282.9" x2="377.1" y2="165.4"/>
		<line class="st3" x1="378.6" y1="164.2" x2="380.2" y2="163"/>
		<g>
			<polygon class="st5" points="380.5,166.5 387.1,157.4 376.8,161.9 			"/>
		</g>
	</g>
</g>
<linearGradient id="SVGID_2_" gradientUnits="userSpaceOnUse" x1="317.6667" y1="57.4247" x2="436.6667" y2="57.4247">
	<stop  offset="0" style="stop-color:#FBB03B"/>
	<stop  offset="6.187899e-02" style="stop-color:#F6AC3A"/>
	<stop  offset="0.1367" style="stop-color:#E7A236"/>
	<stop  offset="0.2181" style="stop-color:#CF9131"/>
	<stop  offset="0.3044" style="stop-color:#AC7929"/>
	<stop  offset="0.3944" style="stop-color:#805A1E"/>
	<stop  offset="0.4876" style="stop-color:#4B3412"/>
	<stop  offset="0.5817" style="stop-color:#0C0903"/>
	<stop  offset="0.5992" style="stop-color:#000000"/>
	<stop  offset="0.6393" style="stop-color:#211708"/>
	<stop  offset="0.7404" style="stop-color:#6D4D1A"/>
	<stop  offset="0.8306" style="stop-color:#AA7728"/>
	<stop  offset="0.9066" style="stop-color:#D69632"/>
	<stop  offset="0.9654" style="stop-color:#F1A939"/>
	<stop  offset="1" style="stop-color:#FBB03B"/>
</linearGradient>
<rect x="317.7" y="48.5" class="st8" width="119" height="17.8"/>
<line class="st9" x1="473.5" y1="287.7" x2="115.2" y2="287.7"/>
<g>
	<g>
		<line class="st1" x1="117.1" y1="338.2" x2="213.6" y2="338.2"/>
		<g>
			<polygon points="118.8,340.8 109.3,338.2 118.8,335.7 			"/>
		</g>
		<g>
			<polygon points="211.9,340.8 221.4,338.2 211.9,335.7 			"/>
		</g>
	</g>
</g>
<g>
	<g>
		<path class="st10" d="M473.4,283.8c0,0-1.2-0.3-3.3-0.8c-1-0.2-2.3-0.6-3.8-1.1c-0.7-0.2-1.5-0.5-2.3-0.8c-0.8-0.3-1.6-0.7-2.5-1
			c-1.8-0.7-3.5-1.7-5.5-2.6c-1-0.5-1.9-1.1-2.9-1.7c-1-0.6-2-1.2-2.9-1.9c-1-0.7-1.9-1.4-2.9-2.1c-1-0.8-1.9-1.6-2.9-2.4
			c-1-0.8-1.9-1.7-2.8-2.5c-0.9-0.9-1.9-1.7-2.7-2.7c-0.8-1-1.7-1.9-2.5-2.9c-0.8-1-1.6-2-2.3-3c-0.8-1-1.5-2-2.2-3
			c-0.7-1-1.4-2-2-3.1c-0.6-1-1.2-2.1-1.8-3.1c-0.6-1-1.1-2-1.6-3c-0.5-1-1-1.9-1.5-2.9c-0.4-1-0.8-1.9-1.2-2.8
			c-0.8-1.8-1.3-3.5-1.7-5c-0.2-0.8-0.4-1.5-0.6-2.1c-0.1-0.7-0.2-1.3-0.3-1.8c-0.4-2.2-0.6-3.5-0.6-3.5l7.8-1.4
			c0,0,0.3,1.1,0.8,3.1c0.1,0.5,0.2,1,0.4,1.6c0.2,0.6,0.4,1.2,0.6,1.9c0.2,0.7,0.4,1.4,0.6,2.2c0.2,0.8,0.5,1.6,0.7,2.4
			c0.3,0.8,0.5,1.7,0.8,2.6c0.3,0.9,0.6,1.8,1,2.8c0.6,1.9,1.5,3.8,2.5,5.8c0.4,1,1,2,1.6,3c0.5,1,1.1,2,1.8,3
			c0.6,1,1.3,1.9,1.9,2.9c0.7,0.9,1.4,1.9,2.1,2.8c0.7,1,1.5,1.8,2.2,2.7c0.8,0.9,1.5,1.8,2.4,2.6c0.8,0.8,1.6,1.7,2.4,2.5
			c0.9,0.8,1.7,1.5,2.5,2.3c0.8,0.8,1.7,1.4,2.5,2.1c0.9,0.6,1.7,1.4,2.5,1.9c1.7,1.1,3.3,2.3,4.9,3.1c0.8,0.4,1.5,0.9,2.3,1.3
			c0.7,0.4,1.4,0.7,2.1,1c0.7,0.3,1.3,0.6,1.9,0.9c0.6,0.3,1.1,0.5,1.6,0.7c2,0.8,3.1,1.2,3.1,1.2L473.4,283.8z"/>
		<g>
			<polygon class="st10" points="433.3,232.6 424.2,202.5 417,233.1 			"/>
		</g>
	</g>
</g>
<g>
	<path class="st11" d="M516.9,288.9c-0.4-2.2-20.8,6.8-23.1,7.8c-1.8,0.8-3.5,1.4-5.3,2.4c-1.9,1-5.7,2.2-6,4.8
		c-0.3,2.4,3.3,5.9,5.5,5.2c2.6-0.9,5.5-5,7.3-6.8c3.3-3.3,7-6.5,11.1-8.8C507.3,293,516.9,288.7,516.9,288.9
		C516.9,288.7,517,289.1,516.9,288.9z"/>
	<path class="st11" d="M489.8,278.7c0.7,2.1,1.5,5.3,1.6,9.3c0,4.6-1,8.3-1.9,10.6"/>
	<path class="st11" d="M467.9,266.2c0.9,1,2.4,2.5,4.8,3.7c2.9,1.4,5.6,1.6,7,1.6"/>
	<path class="st11" d="M466.6,270.8c1.5,0.8,3.8,1.8,6.6,2.3c3.3,0.6,6.1,0.4,7.9,0"/>
	<path class="st11" d="M467.8,275.8c1.7,0.4,4.3,0.8,7.4,0.5c3.1-0.3,5.5-1.2,7-2"/>
	<path class="st12" d="M484.5,301.2c-4.3-2.9-6.6-7.8-7-12.9c-0.2-2.5,1.1-13.5,4.9-13.5c3.4,0,3.9,9.1,4,11.3
		c0.1,4.4-0.7,9.8-3.8,13.3"/>
	<path class="st13" d="M480.5,293.4c-2-3.8-1.3-8.2-0.3-12.2"/>
	<path class="st11" d="M517.9,289c-4-1.1-6.3-2.1-9.2-5c-3-3-6.2-5.9-9.4-8.8c-2.7-2.4-5.2-5.1-8.5-6.8c-2.6-1.3-7.4-2.8-10.1-1
		c-6.8,4.4,11.4,12.4,14,13.7C502,284.6,509.8,288.6,517.9,289C518.4,289.1,515.4,288.9,517.9,289z"/>
</g>
<g>
</g>
<g>
</g>
<g>
</g>
<g>
</g>
<g>
</g>
<g>
</g>
</svg>
